# Object Export From Tinkercad Server 2015

mtllib obj.mtl

o obj_0
v -10.3593 		-4.1725 		4.4518
v -10.3593 		-4.1725 		18.4728
v 2.9747 		-1.1725 		22.8048
v 2.9747 		-4.1725 		22.8048
v 2.9747 		-4.1725 		0.1198
v 4.1137 		-4.1725 		7.9568
v -2.5533 		-4.1725 		5.7908
v -2.3073 		-1.1725 		6.6908
v -8.8743 		-1.1725 		5.5648
v -10.3593 		-1.1725 		4.4518
v -8.8743 		-0.2315 		5.5648
v -2.3073 		-0.2315 		6.6908
v 3.3017 		-1.1725 		8.5128
v 2.3437 		-1.1725 		1.9188
v 2.3437 		-0.2315 		1.9188
v 3.3017 		-0.2315 		8.5128
v -10.3593 		-1.1725 		18.4728
v -8.8743 		-1.1725 		17.3598
v -6.6743 		-4.1725 		11.4618
v -2.5533 		-4.1725 		17.1338
v 9.2777 		-0.2315 		11.4618
v 9.2777 		-1.1725 		11.4618
v 11.2157 		-4.1725 		11.4618
v 4.1137 		-4.1725 		14.9678
v -2.5533 		-1.1725 		5.7908
v 2.3437 		-0.2315 		21.0048
v 2.3437 		-1.1725 		21.0048
v -2.3073 		-1.1725 		16.2338
v -2.3073 		-0.2315 		16.2338
v 4.1137 		-1.1725 		14.9678
v -8.8743 		-0.2315 		17.3598
v -5.7743 		-0.2315 		11.4618
v 3.3017 		-1.1725 		14.4108
v 3.3017 		-0.2315 		14.4108
v 4.1137 		-1.1725 		7.9568
v 2.9747 		-1.1725 		0.1198
v 11.2157 		-1.1725 		11.4618
v -6.6743 		-1.1725 		11.4618
v -5.7743 		-1.1725 		11.4618
v -2.5533 		-1.1725 		17.1338
# 40 vertices

g group_0_16768282

usemtl color_16768282
s 0

f 8 	9 	11
f 8 	11 	12
f 13 	14 	15
f 13 	15 	16
f 38 	17 	18
f 7 	19 	1
f 2 	19 	20
f 12 	15 	14
f 16 	21 	22
f 16 	22 	13
f 25 	10 	9
f 9 	8 	25
f 14 	25 	8
f 19 	7 	20
f 24 	20 	6
f 6 	20 	7
f 5 	6 	7
f 23 	24 	6
f 31 	18 	29
f 24 	4 	20
f 22 	33 	30
f 3 	30 	27
f 33 	27 	30
f 3 	27 	40
f 16 	34 	21
f 40 	4 	3
f 10 	38 	9
f 4 	24 	3
f 30 	3 	24
f 26 	34 	29
f 16 	12 	34
f 29 	34 	32
f 32 	34 	12
f 31 	29 	32
f 10 	1 	19
f 33 	22 	34
f 21 	34 	22
f 25 	14 	36
f 35 	36 	14
f 11 	9 	32
f 27 	33 	34
f 26 	27 	34
f 35 	22 	37
f 30 	37 	22
f 5 	36 	6
f 5 	7 	25
f 14 	13 	35
f 22 	35 	13
f 5 	25 	36
f 6 	36 	35
f 14 	8 	12
f 17 	19 	2
f 37 	23 	35
f 7 	1 	10
f 7 	10 	25
f 6 	35 	23
f 37 	30 	23
f 18 	39 	38
f 38 	39 	9
f 20 	4 	40
f 19 	17 	38
f 17 	40 	18
f 38 	10 	19
f 40 	28 	18
f 20 	40 	2
f 31 	32 	18
f 39 	18 	32
f 2 	40 	17
f 23 	30 	24
f 16 	15 	12
f 11 	32 	12
f 28 	29 	18
f 9 	39 	32
f 27 	28 	40
f 26 	29 	27
f 28 	27 	29
# 76 faces

 #end of obj_0

