# Object Export From Tinkercad Server 2015

mtllib obj.mtl

o obj_0
v -1 		0 		3.1696
v -0.9916 		0 		3.0417
v -0.9666 		0 		2.916
v -0.9255 		0 		2.7947
v 0.8845 		0 		3.5444
v 0.9256 		0 		3.4231
v -0.3953 		0.2853 		2.2646
v -0.8736 		0.2853 		3.2819
v -0.8516 		0.2853 		3.3923
v -0.9255 		0 		3.5444
v -0.2432 		0.2853 		2.3384
v -0.9666 		0 		3.4231
v -0.9916 		0 		3.2974
v -0.3498 		0.2853 		2.3746
v -0.3498 		0.3941 		2.3746
v -0.2432 		0.3941 		2.3384
v 0.5879 		0.2853 		2.5611
v 0.2022 		0.3941 		2.3384
v 0.5033 		0.2853 		2.4869
v 0.0918 		0.3941 		2.3165
v 0.5033 		0.3941 		2.4869
v 0.5879 		0.3941 		2.5611
v -0.7976 		0.2853 		2.5733
v 0.4097 		0.2853 		3.9147
v 0.5033 		0.2853 		3.8522
v 0.5033 		0.3941 		3.8522
v 0.4097 		0.3941 		3.9147
v -0.4507 		0.2853 		2.4244
v -0.8516 		0.3941 		3.3923
v -0.8736 		0.3941 		3.2819
v 0.84 		0.3941 		3.1696
v 0.8326 		0.3941 		3.0572
v 0.8106 		0.3941 		2.9468
v 0.5879 		0.2853 		3.778
v 0.7745 		0.3941 		2.8403
v 0.7247 		0.3941 		2.7393
v 0.6622 		0.3941 		2.6457
v -0.7131 		0.2853 		3.8622
v 0.4097 		0.3941 		2.4244
v -0.8155 		0.2853 		3.4988
v 0.3088 		0.3941 		2.3746
v 0.5879 		0.3941 		3.778
v -0.9255 		0.2853 		2.7947
v -0.4507 		0.3941 		2.4244
v -0.9666 		0.2853 		2.916
v 0.8106 		0.3941 		3.3923
v -0.9916 		0.2853 		3.0417
v -1 		0.2853 		3.1696
v 0.8326 		0.3941 		3.2819
v -0.881 		0.2853 		3.1696
v 0.4097 		0.2853 		2.4244
v -0.5443 		0.2853 		2.4869
v 0.0918 		0.3941 		4.0227
v 0.2022 		0.3941 		4.0007
v 0.3088 		0.3941 		3.9645
v -0.8688 		0.2853 		2.6798
v 0.6622 		0.3941 		3.6934
v -0.8155 		0.3941 		3.4988
v 0.7247 		0.3941 		3.5998
v 0.7745 		0.3941 		3.4988
v -0.9916 		0.2853 		3.2974
v -0.9666 		0.2853 		3.4231
v -0.9255 		0.2853 		3.5444
v -0.0205 		0.3941 		2.3091
v -0.1328 		0.3941 		2.3165
v -0.5443 		0.3941 		2.4869
v -0.6289 		0.3941 		2.5611
v -0.7032 		0.3941 		2.6457
v -0.7657 		0.3941 		2.7393
v -0.8155 		0.3941 		2.8403
v -0.8516 		0.3941 		2.9468
v -0.8736 		0.3941 		3.0572
v -0.881 		0.3941 		3.1696
v -0.6168 		0.2853 		3.9467
v -0.7657 		0.2853 		3.5998
v -0.6289 		0.2853 		2.5611
v -0.7657 		0.3941 		3.5998
v -0.7032 		0.3941 		3.6934
v -0.6289 		0.3941 		3.778
v 0.9506 		0 		3.2974
v -0.5443 		0.3941 		3.8522
v -0.4507 		0.3941 		3.9147
v -0.3498 		0.3941 		3.9645
v -0.2432 		0.3941 		4.0007
v -0.1328 		0.3941 		4.0227
v -0.0205 		0.3941 		4.03
v 0.3088 		0.2853 		2.3746
v 0.84 		0.2853 		3.1696
v -0.7032 		0.2853 		3.6934
v -0.5103 		0.2853 		4.0178
v 0.2022 		0.2853 		2.3384
v 0.8278 		0.2853 		2.6798
v 0.8326 		0.2853 		3.0572
v 0.0918 		0.2853 		2.3165
v 0.3543 		0 		4.0745
v 0.233 		0 		4.1157
v 0.1074 		0 		4.1407
v -0.6289 		0.2853 		3.778
v -0.0205 		0 		4.1491
v -0.1484 		0 		4.1407
v 0.7566 		0.2853 		2.5733
v -0.274 		0 		4.1157
v -0.3953 		0 		4.0745
v 0.8106 		0.2853 		2.9468
v -0.5443 		0.2853 		3.8522
v 0.1074 		0.2853 		4.1407
v 0.233 		0.2853 		4.1157
v 0.3543 		0.2853 		4.0745
v 0.4693 		0.2853 		4.0178
v 0.0918 		0.2853 		4.0227
v -0.4507 		0.2853 		3.9147
v -0.0205 		0.2853 		4.1491
v -0.0205 		0.2853 		4.03
v 0.6721 		0.2853 		2.4769
v 0.7745 		0.2853 		2.8403
v -0.3498 		0.2853 		3.9645
v -0.3953 		0.2853 		4.0745
v -0.274 		0.2853 		4.1157
v -0.1484 		0.2853 		4.1407
v -0.2432 		0.2853 		4.0007
v 0.5758 		0.2853 		2.3924
v 0.7247 		0.2853 		2.7393
v -0.1328 		0.2853 		4.0227
v 0.6622 		0.2853 		2.6457
v 0.4693 		0.2853 		2.3213
v 0.1074 		0 		2.1984
v 0.233 		0 		2.2234
v 0.3543 		0 		2.2646
v 0.4693 		0 		2.3213
v 0.5758 		0 		2.3924
v 0.6721 		0 		2.4769
v 0.7566 		0 		2.5733
v 0.8278 		0 		2.6798
v 0.8845 		0 		2.7947
v 0.9256 		0 		2.916
v 0.9506 		0 		3.0417
v 0.959 		0 		3.1696
v -0.8688 		0 		2.6798
v -0.7976 		0 		2.5733
v -0.7131 		0 		2.4769
v -0.6168 		0 		2.3924
v -0.5103 		0 		2.3213
v -0.3953 		0 		2.2646
v -0.274 		0 		2.2234
v -0.1484 		0 		2.1984
v -0.0205 		0 		2.19
v 0.6622 		0.2853 		3.6934
v 0.7247 		0.2853 		3.5998
v 0.8278 		0 		3.6593
v 0.7566 		0 		3.7658
v 0.6721 		0 		3.8622
v 0.5758 		0 		3.9467
v 0.4693 		0 		4.0178
v 0.7745 		0.2853 		3.4988
v -0.7032 		0.2853 		2.6457
v 0.8106 		0.2853 		3.3923
v -0.7657 		0.2853 		2.7393
v 0.8326 		0.2853 		3.2819
v -0.8155 		0.2853 		2.8403
v -0.8516 		0.2853 		2.9468
v -0.0205 		0.2853 		2.3091
v -0.8736 		0.2853 		3.0572
v -0.5103 		0.2853 		2.3213
v -0.1328 		0.2853 		2.3165
v -0.8688 		0.2853 		3.6593
v -0.6168 		0.2853 		2.3924
v -0.7976 		0.2853 		3.7658
v -0.7131 		0.2853 		2.4769
v -0.5103 		0 		4.0178
v -0.6168 		0 		3.9467
v -0.7131 		0 		3.8622
v -0.7976 		0 		3.7658
v -0.8688 		0 		3.6593
v 0.5758 		0.2853 		3.9467
v 0.2022 		0.2853 		4.0007
v 0.6721 		0.2853 		3.8622
v 0.3088 		0.2853 		3.9645
v 0.7566 		0.2853 		3.7658
v 0.8278 		0.2853 		3.6593
v 0.9506 		0.2853 		3.0417
v 0.9256 		0.2853 		2.916
v 0.8845 		0.2853 		2.7947
v 0.959 		0.2853 		3.1696
v 0.9506 		0.2853 		3.2974
v 0.8845 		0.2853 		3.5444
v 0.9256 		0.2853 		3.4231
v 0.233 		0.2853 		2.2234
v 0.1074 		0.2853 		2.1984
v 0.3543 		0.2853 		2.2646
v -0.0205 		0.2853 		2.19
v -0.1484 		0.2853 		2.1984
v -0.274 		0.2853 		2.2234
# 192 vertices

g group_0_16089887

usemtl color_16089887
s 0

f 5 	6 	185
f 3 	13 	2
f 4 	12 	3
f 13 	3 	12
f 1 	2 	13
f 10 	12 	4
f 11 	14 	15
f 11 	15 	16
f 17 	19 	21
f 17 	21 	22
f 24 	25 	26
f 24 	26 	27
f 14 	163 	28
f 8 	9 	29
f 8 	29 	30
f 25 	176 	34
f 9 	62 	40
f 31 	32 	20
f 32 	33 	20
f 33 	35 	20
f 35 	36 	20
f 36 	37 	20
f 37 	22 	20
f 22 	21 	20
f 21 	39 	20
f 39 	41 	20
f 18 	20 	41
f 23 	139 	56
f 25 	34 	42
f 25 	42 	26
f 14 	28 	44
f 14 	44 	15
f 28 	163 	52
f 157 	155 	56
f 43 	157 	56
f 9 	40 	58
f 9 	58 	29
f 31 	20 	49
f 46 	49 	20
f 53 	54 	20
f 54 	55 	20
f 55 	27 	20
f 27 	26 	20
f 26 	42 	20
f 42 	57 	20
f 57 	59 	20
f 59 	60 	20
f 46 	20 	60
f 50 	162 	47
f 48 	50 	47
f 160 	159 	45
f 157 	43 	159
f 43 	45 	159
f 62 	8 	61
f 63 	40 	62
f 43 	56 	138
f 16 	15 	65
f 15 	44 	65
f 44 	66 	65
f 66 	67 	65
f 64 	65 	67
f 64 	67 	68
f 64 	68 	69
f 64 	69 	70
f 64 	70 	71
f 72 	20 	71
f 73 	20 	72
f 30 	20 	73
f 64 	71 	20
f 74 	105 	38
f 40 	63 	75
f 4 	43 	138
f 28 	52 	66
f 28 	66 	44
f 4 	3 	45
f 4 	45 	43
f 52 	168 	76
f 23 	56 	155
f 3 	2 	47
f 3 	47 	45
f 19 	51 	39
f 19 	39 	21
f 40 	75 	77
f 40 	77 	58
f 52 	76 	67
f 52 	67 	66
f 20 	30 	29
f 20 	29 	58
f 20 	58 	77
f 20 	77 	78
f 20 	78 	79
f 20 	79 	81
f 20 	81 	82
f 20 	82 	83
f 20 	83 	84
f 20 	84 	85
f 20 	85 	86
f 20 	86 	53
f 51 	125 	87
f 51 	87 	41
f 51 	41 	39
f 75 	165 	89
f 98 	38 	105
f 105 	74 	90
f 2 	1 	48
f 2 	48 	47
f 1 	13 	61
f 1 	61 	48
f 74 	169 	90
f 13 	12 	62
f 13 	62 	61
f 87 	91 	18
f 87 	18 	41
f 12 	10 	63
f 12 	63 	62
f 90 	103 	117
f 88 	180 	93
f 91 	188 	94
f 161 	94 	188
f 75 	89 	78
f 75 	78 	77
f 132 	101 	92
f 91 	94 	20
f 91 	20 	18
f 97 	4 	96
f 89 	38 	98
f 88 	93 	32
f 88 	32 	31
f 89 	98 	79
f 89 	79 	78
f 100 	4 	99
f 102 	4 	100
f 103 	4 	102
f 101 	124 	92
f 93 	181 	104
f 94 	161 	20
f 98 	105 	81
f 98 	81 	79
f 108 	175 	107
f 106 	107 	110
f 109 	177 	108
f 105 	90 	111
f 93 	104 	33
f 93 	33 	32
f 105 	111 	82
f 105 	82 	81
f 114 	124 	101
f 104 	181 	115
f 112 	106 	110
f 112 	113 	123
f 117 	118 	120
f 116 	117 	120
f 116 	111 	90
f 117 	116 	90
f 120 	118 	123
f 119 	123 	118
f 112 	123 	119
f 106 	112 	97
f 99 	97 	112
f 111 	116 	83
f 111 	83 	82
f 97 	96 	107
f 97 	107 	106
f 96 	95 	108
f 96 	108 	107
f 104 	115 	35
f 104 	35 	33
f 116 	120 	84
f 116 	84 	83
f 121 	19 	114
f 115 	182 	122
f 120 	123 	85
f 120 	85 	84
f 102 	118 	117
f 102 	117 	103
f 100 	119 	118
f 100 	118 	102
f 123 	113 	86
f 123 	86 	85
f 115 	122 	36
f 115 	36 	35
f 99 	112 	119
f 99 	119 	100
f 113 	112 	110
f 122 	92 	124
f 121 	125 	19
f 51 	19 	125
f 53 	86 	113
f 53 	113 	110
f 122 	124 	37
f 122 	37 	36
f 124 	114 	17
f 127 	128 	126
f 126 	128 	129
f 126 	129 	130
f 126 	130 	131
f 126 	131 	132
f 126 	132 	133
f 126 	133 	134
f 126 	134 	135
f 126 	135 	136
f 126 	136 	137
f 124 	17 	22
f 124 	22 	37
f 17 	114 	19
f 139 	6 	138
f 140 	6 	139
f 141 	6 	140
f 142 	6 	141
f 143 	6 	142
f 144 	6 	143
f 145 	6 	144
f 126 	6 	146
f 146 	6 	145
f 34 	176 	147
f 178 	179 	147
f 34 	147 	57
f 34 	57 	42
f 137 	80 	126
f 80 	6 	126
f 6 	5 	4
f 5 	149 	4
f 149 	150 	4
f 150 	151 	4
f 151 	152 	4
f 152 	153 	4
f 153 	95 	4
f 95 	96 	4
f 147 	148 	59
f 147 	59 	57
f 148 	154 	60
f 148 	60 	59
f 76 	168 	155
f 76 	155 	68
f 76 	68 	67
f 154 	156 	46
f 154 	46 	60
f 156 	186 	158
f 155 	157 	69
f 155 	69 	68
f 158 	49 	46
f 158 	46 	156
f 31 	49 	158
f 31 	158 	88
f 157 	159 	70
f 157 	70 	69
f 48 	61 	50
f 8 	30 	50
f 73 	50 	30
f 159 	160 	71
f 159 	71 	70
f 160 	45 	162
f 161 	64 	20
f 160 	162 	72
f 160 	72 	71
f 163 	14 	7
f 190 	191 	161
f 45 	47 	162
f 162 	50 	73
f 162 	73 	72
f 165 	75 	63
f 8 	50 	61
f 161 	164 	65
f 161 	65 	64
f 10 	165 	63
f 166 	52 	163
f 164 	161 	191
f 164 	11 	16
f 164 	16 	65
f 38 	89 	167
f 167 	89 	165
f 8 	62 	9
f 23 	155 	168
f 168 	52 	166
f 11 	7 	14
f 140 	168 	166
f 140 	23 	168
f 4 	138 	6
f 97 	99 	4
f 4 	103 	169
f 4 	169 	170
f 4 	170 	171
f 4 	171 	172
f 4 	172 	173
f 4 	173 	10
f 133 	92 	134
f 133 	132 	92
f 114 	101 	131
f 132 	131 	101
f 114 	131 	121
f 130 	121 	131
f 125 	121 	129
f 130 	129 	121
f 129 	128 	125
f 126 	146 	190
f 146 	145 	191
f 145 	144 	191
f 7 	144 	143
f 7 	143 	163
f 142 	163 	143
f 163 	142 	166
f 141 	166 	142
f 141 	140 	166
f 23 	140 	139
f 138 	56 	139
f 153 	109 	108
f 153 	108 	95
f 109 	153 	152
f 149 	5 	185
f 174 	25 	109
f 110 	107 	175
f 109 	152 	174
f 151 	176 	152
f 110 	175 	54
f 110 	54 	53
f 173 	165 	10
f 176 	25 	174
f 175 	108 	177
f 165 	173 	167
f 172 	167 	173
f 174 	152 	176
f 151 	150 	176
f 38 	167 	171
f 172 	171 	167
f 175 	177 	55
f 175 	55 	54
f 178 	147 	176
f 177 	109 	24
f 170 	74 	38
f 170 	38 	171
f 176 	150 	178
f 74 	170 	169
f 179 	178 	149
f 177 	24 	27
f 177 	27 	55
f 103 	90 	169
f 24 	109 	25
f 154 	148 	185
f 150 	149 	178
f 92 	122 	182
f 181 	182 	115
f 180 	181 	93
f 158 	184 	88
f 180 	88 	183
f 179 	149 	185
f 183 	88 	184
f 154 	186 	156
f 148 	147 	179
f 179 	185 	148
f 186 	154 	185
f 184 	158 	186
f 180 	183 	136
f 137 	136 	183
f 136 	135 	181
f 136 	181 	180
f 182 	181 	134
f 135 	134 	181
f 134 	92 	182
f 185 	6 	186
f 184 	186 	80
f 6 	80 	186
f 80 	137 	183
f 184 	80 	183
f 187 	188 	91
f 87 	189 	91
f 189 	87 	125
f 187 	91 	189
f 7 	11 	192
f 191 	192 	11
f 11 	164 	191
f 188 	190 	161
f 128 	189 	125
f 187 	189 	127
f 128 	127 	189
f 127 	126 	188
f 127 	188 	187
f 126 	190 	188
f 146 	191 	190
f 191 	144 	192
f 144 	7 	192
# 380 faces

 #end of obj_0

