# Object Export From Tinkercad Server 2015

mtllib obj.mtl

o obj_0
v -9.5283 		-0.7225 		8.6198
v -4.6213 		-0.7225 		0.1198
v 5.1937 		-0.7225 		0.1198
v 10.1017 		-0.7225 		8.6198
v 5.1937 		-0.7225 		17.1198
v -4.6213 		-0.7225 		17.1198
v 8.6097 		2.2775 		8.6198
v 4.4477 		2.2775 		1.4128
v 4.4477 		3.2185 		1.4128
v 8.6097 		3.2185 		8.6198
v -9.5283 		2.2775 		8.6198
v -8.0363 		2.2775 		8.6198
v -3.8743 		2.2775 		1.4128
v -3.8743 		3.2185 		1.4128
v -8.0363 		3.2185 		8.6198
v -3.8743 		2.2775 		15.8278
v -3.8743 		3.2185 		15.8278
v -4.6213 		2.2775 		0.1198
v -4.6213 		2.2775 		17.1198
v 5.1937 		2.2775 		17.1198
v 4.4477 		3.2185 		15.8278
v 10.1017 		2.2775 		8.6198
v 5.1937 		2.2775 		0.1198
v 4.4477 		2.2775 		15.8278
# 24 vertices

g group_0_40919

usemtl color_40919
s 0

f 1 	2 	3
f 1 	3 	4
f 1 	4 	5
f 1 	5 	6
f 7 	8 	9
f 7 	9 	10
f 8 	13 	14
f 8 	14 	9
f 13 	18 	12
f 15 	12 	16
f 15 	16 	17
f 2 	1 	11
f 2 	11 	18
f 11 	1 	6
f 19 	11 	6
f 19 	6 	20
f 5 	20 	6
f 14 	15 	9
f 10 	9 	15
f 17 	21 	15
f 10 	15 	21
f 19 	20 	16
f 11 	19 	12
f 16 	12 	19
f 20 	5 	22
f 4 	22 	5
f 22 	4 	23
f 3 	23 	4
f 3 	2 	18
f 3 	18 	23
f 22 	7 	20
f 16 	20 	24
f 13 	12 	15
f 13 	15 	14
f 24 	21 	17
f 24 	17 	16
f 7 	10 	21
f 7 	21 	24
f 23 	8 	22
f 24 	20 	7
f 18 	13 	23
f 7 	22 	8
f 11 	12 	18
f 8 	23 	13
# 44 faces

 #end of obj_0

