# Object Export From Tinkercad Server 2015

mtllib obj.mtl

o obj_0
v 8.4557 		-1.7566 		15.9198
v -7.3443 		-1.7566 		15.9198
v 8.4557 		-1.7566 		0.1198
v -7.3443 		-1.7566 		0.1198
v 7.3307 		2.1844 		14.7948
v 7.3307 		1.2434 		14.7948
v 7.3307 		1.2434 		1.2448
v 7.3307 		2.1844 		1.2448
v -7.3443 		1.2434 		0.1198
v -7.3443 		1.2434 		15.9198
v -6.2193 		1.2434 		1.2448
v 8.4557 		1.2434 		15.9198
v -6.2193 		2.1844 		1.2448
v -6.2193 		2.1844 		14.7948
v -6.2193 		1.2434 		14.7948
v 8.4557 		1.2434 		0.1198
# 16 vertices

g group_0_15277357

usemtl color_15277357
s 0

f 5 	6 	7
f 5 	7 	8
f 9 	4 	2
f 9 	2 	10
f 12 	1 	3
f 8 	7 	11
f 8 	11 	13
f 9 	10 	15
f 9 	15 	11
f 12 	3 	16
f 13 	14 	5
f 13 	5 	8
f 10 	2 	1
f 10 	1 	12
f 14 	15 	6
f 14 	6 	5
f 16 	3 	4
f 16 	4 	9
f 9 	11 	7
f 9 	7 	16
f 13 	11 	15
f 13 	15 	14
f 7 	6 	12
f 7 	12 	16
f 12 	6 	10
f 6 	15 	10
f 3 	1 	2
f 3 	2 	4
# 28 faces

 #end of obj_0

