v 0.3661000133 0.3000000119 3.029299974
vn 0.7406039238 0.5659645796 -0.3622015417
v 0.2703000009 0.3000000119 2.369899988
vn -0.1044413522 0.9258219004 -0.3632434011
v 0.2703000009 0.3941000104 2.369899988
vn 0.2161188722 0.9616933465 -0.1686374396
v 0.3661000133 0.3941000104 3.029299974
vn 0.1120170504 0.9869400263 -0.1157653108
v -0.1948000044 0.3000000119 2.847100019
vn -0.1176062599 0.5452064276 -0.8300113082
v -0.8515000343 0.3000000119 2.734499931
vn -0.3865477741 0.9221735001 -0.01329798624
v -0.8515000343 0.3941000104 2.734499931
vn -0.09361439198 0.9616785049 -0.2577029467
v -0.1948000044 0.3941000104 2.847100019
vn -0.05013828352 0.9942598939 -0.09451703727
v -0.2194000036 0.3000000119 3.891400099
vn -0.131226182 0.3516982198 0.926870048
v -0.1948000044 0.3000000119 3.801399946
vn -0.1175609604 0.5452017784 0.8300207853
v -0.8515000343 0.3000000119 3.914000034
vn -0.1826438308 0.9741832018 0.1326961666
v -1 0.3000000119 2.62319994
vn -0.3230488598 0.3233500421 -0.889429152
v -0.6315000057 0.3000000119 3.324199915
vn -0.9639140964 0.2662133873 -3.997275605e-19
v -1 0.3000000119 4.025300026
vn -0.6880348921 0.5260374546 0.4998925924
v -0.6315000057 -7.133991176e-09 3.324199915
vn -0.276276201 -0.9610782862 2.496093758e-24
v -1 -7.133990731e-09 4.025300026
vn -0.5220910311 -0.7638932467 0.3793258667
v -0.1948000044 0.3941000104 3.801399946
vn -0.07546824217 0.9869422317 0.1423010081
v -0.8515000343 0.3941000104 3.914000034
vn -0.2430648059 0.9537998438 0.1765937805
v 0.9636999965 0.3000000119 3.324199915
vn 0.4054242373 0.9141286612 -1.066622732e-16
v 0.4472999871 0.3000000119 3.674799919
vn 0.7744865417 0.289059639 0.5626856685
v 1.157500029 0.3000000119 3.324199915
vn 0.8399755359 0.5426242948 7.761874424e-17
v 0.2703000009 0.3941000104 4.27850008
vn 0.0480870679 0.98782444 0.1479542404
v 0.3661000133 0.3941000104 3.619100094
vn 0.09379959106 0.993255496 0.0681553185
v 0.9636999965 0.3941000104 3.324199915
vn 0.1555466354 0.9878285527 -7.99342213e-17
v -0.5414999723 0.3941000104 3.324199915
vn -0.1053711995 0.9942615628 0.01846318692
v -1 -7.133991176e-09 2.62319994
vn -0.6070305109 -0.7944043875 -0.02087101899
v 0.4472999871 -7.133990731e-09 3.674799919
vn 0.2235184908 -0.9610766172 0.1623923033
v 0.3334000111 -7.133990731e-09 4.458499908
vn 0.4788610339 -0.7943867445 0.3736867309
v -0.2194000036 -7.133990731e-09 3.891400099
vn -0.1086434498 -0.9727426171 0.2048618793
v -0.5414999723 0.3000000119 3.324199915
vn -0.8341346383 0.5318456888 -0.1461491585
v 0.3661000133 0.3000000119 3.619100094
vn 0.5590328574 0.7228323817 0.4061965346
v 0.3334000111 0.3000000119 4.458499908
vn -0.2606272995 0.3313263357 0.9068055153
v 0.2703000009 0.3000000119 4.27850008
vn 0.1270616055 0.9116023779 0.3909430504
v -0.2194000036 -7.133991176e-09 2.757100105
vn -0.1095121205 -0.9350847602 -0.3370810151
v 0.4472999871 -7.133991176e-09 2.973700047
vn 0.2490804344 -0.960790813 -0.1218194216
v 0.3334000111 -7.133991176e-09 2.190000057
vn 0.120239906 -0.9211771488 -0.3701014221
v 1.157500029 -7.133991176e-09 3.324199915
vn 0.6453537941 -0.7638838291 1.319366047e-16
v -0.2194000036 0.3000000119 2.757100105
vn -0.268206656 0.4965256751 -0.8255467415
v 0.3334000111 0.3000000119 2.190000057
vn 0.2944853902 0.3027488887 -0.9064334035
v 0.4472999871 0.3000000119 2.973700047
vn 0.646453917 0.3685185313 -0.668050468
# mm_gid 0
g mmGroup0
f 1//1 2//2 3//3 
f 1//1 3//3 4//4 
f 5//5 6//6 7//7 
f 5//5 7//7 8//8 
f 9//9 10//10 11//11 
f 12//12 13//13 6//6 
f 9//9 11//11 14//14 
f 13//13 14//14 11//11 
f 13//13 15//15 16//16 
f 13//13 16//16 14//14 
f 10//10 17//17 18//18 
f 19//19 20//20 21//21 
f 22//22 23//23 17//17 
f 4//4 8//8 23//23 
f 24//24 4//4 23//23 
f 17//17 23//23 25//25 
f 25//25 23//23 8//8 
f 18//18 17//17 25//25 
f 13//13 26//26 15//15 
f 27//27 28//28 29//29 
f 30//30 25//25 6//6 
f 7//7 6//6 25//25 
f 19//19 31//31 20//20 
f 32//32 20//20 33//33 
f 31//31 33//33 20//20 
f 15//15 34//34 29//29 
f 16//16 15//15 29//29 
f 27//27 29//29 35//35 
f 26//26 34//34 15//15 
f 35//35 29//29 34//34 
f 36//36 35//35 34//34 
f 37//37 27//27 35//35 
f 38//38 2//2 39//39 
f 40//40 39//39 2//2 
f 2//2 5//5 8//8 
f 28//28 32//32 29//29 
f 36//36 39//39 35//35 
f 11//11 30//30 13//13 
f 27//27 37//37 20//20 
f 29//29 9//9 16//16 
f 14//14 16//16 9//9 
f 30//30 6//6 13//13 
f 1//1 19//19 40//40 
f 2//2 1//1 40//40 
f 21//21 40//40 19//19 
f 38//38 39//39 34//34 
f 32//32 28//28 20//20 
f 28//28 27//27 20//20 
f 35//35 39//39 40//40 
f 21//21 20//20 37//37 
f 31//31 19//19 23//23 
f 24//24 23//23 19//19 
f 12//12 26//26 13//13 
f 36//36 34//34 39//39 
f 33//33 31//31 23//23 
f 22//22 33//33 23//23 
f 4//4 3//3 8//8 
f 34//34 26//26 12//12 
f 11//11 18//18 30//30 
f 30//30 18//18 25//25 
f 35//35 40//40 37//37 
f 21//21 37//37 40//40 
f 7//7 25//25 8//8 
f 8//8 3//3 2//2 
f 1//1 4//4 19//19 
f 24//24 19//19 4//4 
f 38//38 12//12 6//6 
f 6//6 5//5 38//38 
f 2//2 38//38 5//5 
f 18//18 11//11 10//10 
f 34//34 12//12 38//38 
f 32//32 33//33 9//9 
f 33//33 10//10 9//9 
f 29//29 32//32 9//9 
f 22//22 17//17 33//33 
f 10//10 33//33 17//17 
