v 0.8845000267 2.896458628e-10 3.544399977
vn 0.1331445575 -0.9895621538 0.05512927473
v 0.9255999923 2.896458628e-10 3.423099995
vn 0.04263189808 -0.9990137815 0.01240873989
v 0.8845000267 0.2852999866 3.544399977
vn 0.8848714828 0.287686795 0.3663861454
v -0.9666000009 2.896458073e-10 2.915999889
vn -0.9126285911 -0.3425582349 -0.2230760604
v -0.991599977 2.896458351e-10 3.297399998
vn -0.9702870846 -0.1902970523 0.1494323462
v -0.991599977 2.896458351e-10 3.041699886
vn -0.9910408854 -0.07776288688 -0.1085858569
v -0.9254999757 2.896458073e-10 2.794699907
vn -0.02926847339 -0.9995068908 -0.01137173083
v -0.9666000009 2.896458628e-10 3.423099995
vn -0.8277302384 -0.5067718625 0.2409251034
v -1 2.896458351e-10 3.16960001
vn -0.9995676875 -0.01962259226 0.02189410664
v -0.9254999757 2.896458628e-10 3.544399977
vn -0.7604132295 -0.5566000938 0.3346162736
v -0.2432000041 0.2852999866 2.338399887
vn -0.1510269493 0.8417798281 -0.5182640553
v -0.3497999907 0.2852999866 2.374599934
vn -0.2651131451 0.753147006 -0.6020669341
v -0.3497999907 0.3941000104 2.374599934
vn -0.3568311334 0.1773044765 -0.9171884656
v -0.2432000041 0.3941000104 2.338399887
vn -0.2371223569 0.04527645931 -0.9704241753
v 0.5878999829 0.2852999866 2.561100006
vn 0.5585235357 0.5893670321 -0.5836933851
v 0.5033000112 0.2852999866 2.486900091
vn 0.319026947 0.8418649435 -0.4352989793
v 0.5033000112 0.3941000104 2.486900091
vn 0.511277318 0.5768039823 -0.6370970607
v 0.5878999829 0.3941000104 2.561100006
vn 0.4885545671 0.7363520861 -0.4680812359
v 0.4097000062 0.2852999866 3.914700031
vn 0.4190657139 0.5893463492 0.6906915903
v 0.5033000112 0.2852999866 3.852200031
vn 0.3377707601 0.8418791294 0.4208924174
v 0.5033000112 0.3941000104 3.852200031
vn 0.06529086083 0.9938816428 0.08908665925
v 0.4097000062 0.3941000104 3.914700031
vn 0.05060914904 0.994451046 0.09222675115
v -0.5102999806 0.2852999866 2.32130003
vn -0.4261278212 0.4630192816 -0.777192533
v -0.4507000148 0.2852999866 2.424400091
vn -0.4190658629 0.5893470049 -0.6906908751
v -0.8736000061 0.2852999866 3.281899929
vn -0.6503538489 0.7529732585 0.1003548726
v -0.8515999913 0.2852999866 3.392299891
vn -0.7756637335 0.5893208981 0.2259351611
v -0.8515999913 0.3941000104 3.392299891
vn -0.1320700794 0.9907132983 0.03232145309
v -0.8736000061 0.3941000104 3.281899929
vn -0.1480879784 0.9888404012 0.01626756974
v 0.6721000075 0.2852999866 3.862200022
vn 0.6585336328 0.3648924828 0.6581693292
v 0.5878999829 0.2852999866 3.778000116
vn 0.5833793879 0.5892914534 0.5589311719
v -0.9666000009 0.2852999866 3.423099995
vn -0.8610370755 0.4629465044 0.2104654163
v -0.815500021 0.2852999866 3.498800039
vn -0.6023561954 0.7529701591 0.2649584711
v 0.8399999738 0.3941000104 3.16960001
vn 0.2130801827 0.9770235419 0.004678898491
v 0.8325999975 0.3941000104 3.057199955
vn 0.2465895861 0.9687418342 -0.02707185782
v 0.09179999679 0.3941000104 2.316499949
vn 0.001453039236 0.9999379516 -0.01104409993
v 0.8105999827 0.3941000104 2.946799994
vn 0.2853527367 0.9558749795 -0.06983429193
v 0.7745000124 0.3941000104 2.840300083
vn 0.3304597735 0.9350460172 -0.1283952147
v 0.7246999741 0.3941000104 2.739300013
vn 0.3824082017 0.8998824358 -0.2097035199
v 0.6621999741 0.3941000104 2.645699978
vn 0.4384284616 0.8393031955 -0.3214818835
v 0.4097000062 0.3941000104 2.424400091
vn 0.4814036191 0.3724420965 -0.7934339643
v 0.3088000119 0.3941000104 2.374599934
vn 0.3966107965 0.1773343235 -0.9006955028
v 0.2021999955 0.3941000104 2.338399887
vn 0.2794853449 0.04527271166 -0.9590820074
v -0.7975999713 0.2852999866 2.573299885
vn -0.7514262199 0.267749995 -0.6030493975
v -0.7975999713 2.896458073e-10 2.573299885
vn -0.1786062568 -0.9751633406 -0.1309817284
v -0.8687999845 0.2852999866 2.679800034
vn -0.7935830355 0.3715315461 -0.4818612635
v 0.5878999829 0.3941000104 3.778000116
vn 0.08094850928 0.9931217432 0.08459636569
v -0.4507000148 0.3941000104 2.424400091
vn -0.4464601278 0.3724688888 -0.8135971427
v -0.5443000197 0.2852999866 2.486900091
vn -0.3377705812 0.8418793082 -0.4208922088
v -0.7656999826 0.2852999866 2.739300013
vn -0.5769973993 0.7529659271 -0.3164115846
v -0.7031999826 0.2852999866 2.645699978
vn -0.4353684783 0.8417489529 -0.3192381263
v -0.9254999757 0.2852999866 2.794699907
vn -0.84972018 0.3717021346 -0.3739159107
v -0.815500021 0.3941000104 3.498800039
vn -0.1169442311 0.9920985699 0.04543687031
v 0.8325999975 0.3941000104 3.281899929
vn 0.1243206337 0.9921063781 0.01641233638
v 0.8105999827 0.3941000104 3.392299891
vn 0.2108814418 0.9758781195 0.05648779497
v 0.09179999679 0.3941000104 4.022699833
vn 0.01043168455 0.9953767061 0.09547971934
v 0.2021999955 0.3941000104 4.000699997
vn 0.02334952168 0.9951727986 0.09531996399
v 0.3088000119 0.3941000104 3.96449995
vn 0.03667873517 0.994870007 0.09427814931
v 0.6621999741 0.3941000104 3.693399906
vn 0.09781458229 0.9920981526 0.07857168466
v 0.7246999741 0.3941000104 3.59980011
vn 0.116228044 0.9907176495 0.07049510628
v 0.7745000124 0.3941000104 3.498800039
vn 0.1364598572 0.9888254404 0.06002461165
v -0.8809999824 0.2852999866 3.16960001
vn -0.5398022532 0.8417084217 0.01185319014
v -0.8736000061 0.2852999866 3.057199955
vn -0.6542055607 0.7528988719 -0.07182200998
v -0.991599977 0.2852999866 3.041699886
vn -0.917598784 0.3715538979 -0.1412805915
v -1 0.2852999866 3.16960001
vn -0.9632399678 0.2678131163 -0.02109288983
v -0.8515999913 0.2852999866 2.946799994
vn -0.7848367691 0.5891852379 -0.1920728981
v -0.815500021 0.2852999866 2.840300083
vn -0.6132194996 0.7531237006 -0.2382572889
v -0.9666000009 0.2852999866 2.915999889
vn -0.8510258198 0.4630301595 -0.2477056831
v -0.991599977 0.2852999866 3.297399998
vn -0.9228900075 0.3715350926 0.1011718437
v -0.9254999757 0.2852999866 3.544399977
vn -0.8653159142 0.371747613 0.3362024724
v -0.8687999845 2.896458073e-10 2.679800034
vn -0.1902311593 -0.9761703014 -0.1044206992
v -0.1327999979 0.3941000104 2.316499949
vn -0.05943767354 0.8379175067 -0.5425508022
v -0.5443000197 0.3941000104 2.486900091
vn -0.4828947783 0.5767815113 -0.6588897705
v -0.6288999915 0.3941000104 2.561100006
vn -0.3114698231 0.8927666545 -0.3255061805
v -0.02050000057 0.3941000104 2.309099913
vn 0 0.9966210723 -0.08213689923
v -0.7031999826 0.3941000104 2.645699978
vn -0.3402448297 0.899741888 -0.2733093202
v -0.7656999826 0.3941000104 2.739300013
vn -0.3031789064 0.935023427 -0.1838849932
v -0.815500021 0.3941000104 2.840300083
vn -0.2688646317 0.9558896422 -0.1182655916
v -0.8515999913 0.3941000104 2.946799994
vn -0.1488419622 0.9879101515 -0.04335471988
v -0.8736000061 0.3941000104 3.057199955
vn -0.1842419952 0.9824699163 -0.02842148952
v -0.8809999824 0.3941000104 3.16960001
vn -0.1654738933 0.9862074852 -0.003632461652
v -0.6168000102 0.2852999866 3.946700096
vn -0.569519341 0.2680899799 0.7770299315
v -0.5443000197 0.2852999866 3.852200031
vn -0.319027096 0.8418648243 0.4352991879
v -0.7131000161 0.2852999866 3.862200022
vn -0.6130608916 0.4630822539 0.6400868297
v -0.7656999826 0.2852999866 3.59980011
vn -0.5625968575 0.7530258298 0.3412285447
v -0.7131000161 0.2852999866 2.476900101
vn -0.5566737056 0.6169043183 -0.5563662648
v -0.6288999915 0.2852999866 2.561100006
vn -0.5833787918 0.5892915726 -0.5589317083
v 0.4097000062 0.2852999866 2.424400091
vn 0.388640523 0.5893793106 -0.7082306147
v -0.7656999826 0.3941000104 3.59980011
vn -0.1027058586 0.9931160212 0.05632148311
v -0.7031999826 0.3941000104 3.693399906
vn -0.08905570209 0.993883729 0.06530100852
v -0.6288999915 0.3941000104 3.778000116
vn -0.07596354932 0.9944509268 0.07278008014
v -0.5443000197 0.3941000104 3.852200031
vn -0.0633033663 0.9948720336 0.07888162881
v -0.4507000148 0.3941000104 3.914700031
vn -0.0509085916 0.9951723814 0.08390602469
v -0.3497999907 0.3941000104 3.96449995
vn -0.03870824352 0.9953764081 0.0879059881
v -0.2432000041 0.3941000104 4.000699997
vn -0.02655912191 0.9954926372 0.09104382992
v -0.1327999979 0.3941000104 4.022699833
vn -0.01437454391 0.9955308437 0.09333638102
v -0.02050000057 0.3941000104 4.03000021
vn -0.002054558368 0.9954928756 0.09481438249
v 0.4692999721 0.2852999866 2.32130003
vn 0.4261277914 0.4630192518 -0.777192533
v 0.3088000119 0.2852999866 2.374599934
vn 0.2385447174 0.7530905008 -0.6131485105
v -0.8687999845 0.2852999866 3.659300089
vn -0.8138754964 0.3715144098 0.4467479885
v -0.7031999826 0.2852999866 3.693399906
vn -0.4209356606 0.8417150378 0.3381257057
v -0.6288999915 0.2852999866 3.778000116
vn -0.5585237741 0.5893671513 0.5836930275
v -0.5102999806 0.2852999866 4.017799854
vn -0.4261283278 0.463018924 0.7771924734
v -0.5102999806 2.896458906e-10 4.017799854
vn -0.2327587008 -0.8935845494 0.3838359118
v 0.2021999955 0.2852999866 2.338399887
vn 0.12812756 0.8417999744 -0.5243625641
v -0.3953000009 2.896458906e-10 4.074500084
vn -0.1613308638 -0.9162865281 0.3665942848
v -0.3953000009 0.2852999866 4.074500084
vn -0.3365566432 0.3716352582 0.8652265072
v 0.8399999738 0.2852999866 3.16960001
vn 0.5399158001 0.8416355848 -0.01185216196
v 0.950600028 0.2852999866 3.041699886
vn 0.8499869704 0.5147719979 -0.111946173
v 0.8325999975 0.2852999866 3.057199955
vn 0.65036273 0.7529694438 -0.1003260761
v 0.1073999926 0.2852999866 2.198400021
vn 0.1349303424 0.4632614553 -0.8758895993
v 0.09179999679 0.2852999866 2.316499949
vn 0.08796820045 0.7383835912 -0.6686189175
v -0.02050000057 0.2852999866 2.309099913
vn 2.881512408e-18 0.7604002357 -0.6494547725
v 0.7566000223 2.896458073e-10 2.573299885
vn 0.6699033976 -0.5566657782 -0.491276592
v 0.7566000223 0.2852999866 2.573299885
vn 0.7514261007 0.2677500844 -0.6030495167
v 0.8277999759 0.2852999866 2.679800034
vn 0.8293361068 0.2875199318 -0.4790970087
v 0.1073999926 2.896458906e-10 4.140699863
vn 0.04728541896 -0.9321824312 0.3588871956
v 0.2330000103 2.896458906e-10 4.115699768
vn 0.07340155542 -0.9650323391 0.2516441941
v -0.1483999938 2.896458906e-10 4.140699863
vn -0.04992840067 -0.944702208 0.3241062462
v -0.02050000057 2.896458906e-10 4.149099827
vn -0.006595656741 -0.9535124302 0.301281482
v -0.273999989 2.896458906e-10 4.115699768
vn -0.1009781361 -0.9327158928 0.3461856246
v 0.6621999741 0.2852999866 2.645699978
vn 0.4209352434 0.8417152166 -0.3381257057
v 0.9255999923 0.2852999866 2.915999889
vn 0.8994202018 0.3648413122 -0.2406950593
v 0.8105999827 0.2852999866 2.946799994
vn 0.7756635547 0.5893210173 -0.2259354293
v 0.3542999923 0.2852999866 4.074500084
vn 0.3665862679 0.287573278 0.8848254681
v 0.2021999955 0.2852999866 4.000699997
vn 0.1842850894 0.7529703975 0.6317235231
v 0.2330000103 0.2852999866 4.115699768
vn 0.2207732052 0.3716654778 0.9017338753
v 0.1073999926 0.2852999866 4.140699863
vn 0.1205557361 0.3850336075 0.9149947762
v 0.09179999679 0.2852999866 4.022699833
vn 0.08216523379 0.841791451 0.5335129499
v 0.4692999721 0.2852999866 4.017799854
vn 0.4595422447 0.4631763995 0.7578182817
v 0.3088000119 0.2852999866 3.96449995
vn 0.2651121914 0.7531474829 0.6020668149
v -0.4507000148 0.2852999866 3.914700031
vn -0.3886398077 0.589378655 0.7082315683
v 0.6721000075 0.2852999866 2.476900101
vn 0.5566735864 0.6169043183 -0.556366384
v 0.7745000124 0.2852999866 2.840300083
vn 0.6023558974 0.7529703975 -0.2649585307
v -0.02050000057 0.2852999866 4.149099827
vn 0.01939952932 0.4629986286 0.8861466646
v -0.02050000057 0.2852999866 4.03000021
vn 0.01750116609 0.5894036293 0.807649076
v -0.1327999979 0.2852999866 4.022699833
vn -0.05862340704 0.8418159485 0.5365717411
v -0.273999989 0.2852999866 4.115699768
vn -0.2207731903 0.371665448 0.9017338753
v -0.2432000041 0.2852999866 4.000699997
vn -0.1565654725 0.7529783845 0.6391485333
v -0.3497999907 0.2852999866 3.96449995
vn -0.2385442257 0.7530907989 0.6131483912
v -0.1483999938 0.2852999866 4.140699863
vn -0.1049627513 0.2678654194 0.9577217698
v 0.3542999923 2.896458906e-10 4.074500084
vn 0.06437315792 -0.9857556224 0.1553768367
v 0.5758000016 0.2852999866 2.392400026
vn 0.5958836675 0.204335928 -0.7766398787
v 0.8845000267 0.2852999866 2.794699907
vn 0.7919943929 0.5149822235 -0.3279301822
v 0.7246999741 0.2852999866 2.739300013
vn 0.5625973344 0.7530255914 -0.3412282467
v 0.2330000103 2.896457796e-10 2.223400116
vn 0.258949399 -0.0146853663 -0.9657792449
v 0.3542999923 2.896457796e-10 2.264600039
vn 0.4015833735 -0.07764858007 -0.9125248194
v 0.1073999926 2.896457796e-10 2.198400021
vn 0.01430329122 -0.9913439751 -0.1305088997
v 0.4692999721 2.896457796e-10 2.32130003
vn 0.5108510852 -0.1713016331 -0.8424291611
v 0.5758000016 2.896457796e-10 2.392400026
vn 0.553041935 -0.4178379476 -0.7208023667
v 0.6721000075 2.896457796e-10 2.476900101
vn 0.6665561199 -0.3345088959 -0.6661882401
v 0.8277999759 2.896458073e-10 2.679800034
vn 0.5172840953 -0.8019468188 -0.2988285124
v 0.8845000267 2.896458073e-10 2.794699907
vn 0.7010263205 -0.6513898373 -0.2902643085
v 0.9255999923 2.896458073e-10 2.915999889
vn 0.4120938182 -0.9044427872 -0.1102809832
v 0.950600028 2.896458351e-10 3.041699886
vn 0.6127154827 -0.7861728668 -0.0806967169
v 0.9589999914 2.896458351e-10 3.16960001
vn 0.3176637292 -0.9482034445 -4.811988797e-19
v -0.7131000161 2.896457796e-10 2.476900101
vn -0.210758552 -0.9545735717 -0.2106421739
v -0.6168000102 2.896457796e-10 2.392400026
vn -0.09758628905 -0.9870663881 -0.1271882653
v -0.5102999806 2.896457796e-10 2.32130003
vn -0.1285767257 -0.9687674642 -0.212032035
v -0.3953000009 2.896457796e-10 2.264600039
vn -0.1056010798 -0.9650223255 -0.2399591208
v -0.273999989 2.896457796e-10 2.223400116
vn -0.09374423325 -0.9321864247 -0.3496290743
v -0.1483999938 2.896457796e-10 2.198400021
vn -0.02692332678 -0.9785290956 -0.2043428421
v -0.02050000057 2.896457796e-10 2.190000057
vn -0.007177510764 -0.9446991086 -0.3278598487
v 0.6621999741 0.2852999866 3.693399906
vn 0.4353681207 0.8417491317 0.3192381561
v 0.7566000223 0.2852999866 3.765799999
vn 0.7769416571 0.2678045332 0.5697740316
v 0.8277999759 0.2852999866 3.659300089
vn 0.7423740625 0.5147423744 0.4288601577
v 0.950600028 2.896458351e-10 3.297399998
vn 0.4990350306 -0.8640838265 0.06575057656
v 0.8277999759 2.896458628e-10 3.659300089
vn 0.2431012839 -0.9597808719 0.140436545
v 0.7566000223 2.896458628e-10 3.765799999
vn 0.169249922 -0.9761683941 0.1358297169
v 0.6721000075 2.896458906e-10 3.862200022
vn 0.1058678925 -0.9887347221 0.1058093235
v 0.5758000016 2.896458906e-10 3.946700096
vn 0.1813927889 -0.9545698762 0.2364170849
v 0.4692999721 2.896458906e-10 4.017799854
vn 0.1138551608 -0.9715537429 0.2076542974
v 0.7246999741 0.2852999866 3.59980011
vn 0.5769971013 0.7529661655 0.316411674
v 0.7745000124 0.2852999866 3.498800039
vn 0.6132199168 0.7531234026 0.2382571101
v 0.8105999827 0.2852999866 3.392299891
vn 0.6516322494 0.73817873 0.1745495945
v 0.9255999923 0.2852999866 3.423099995
vn 0.8610370159 0.4629465938 0.2104655504
v 0.8325999975 0.2852999866 3.281899929
vn 0.7522487044 0.6513521671 0.09930901229
v -0.3953000009 0.2852999866 2.264600039
vn -0.3365572095 0.3716347814 -0.8652264476
v -0.02050000057 0.2852999866 2.190000057
vn 0.02108579315 0.2680541575 -0.9631730914
v -0.1483999938 0.2852999866 2.198400021
vn -0.1216127649 0.3650332987 -0.923017323
v -0.1327999979 0.2852999866 2.316499949
vn -0.1227205396 0.5894834399 -0.7984039783
v -0.6168000102 0.2852999866 2.392400026
vn -0.5958836079 0.2043359429 -0.7766399384
v -0.7975999713 0.2852999866 3.765799999
vn -0.7766351104 0.2041054219 0.5959689021
v -0.6168000102 2.896458906e-10 3.946700096
vn -0.3179422915 -0.86141783 0.3960707486
v -0.7131000161 2.896458906e-10 3.862200022
vn -0.4176440239 -0.8160373569 0.3995704055
v -0.7975999713 2.896458628e-10 3.765799999
vn -0.3993504941 -0.8640642762 0.3064508438
v -0.8687999845 2.896458628e-10 3.659300089
vn -0.6367049813 -0.6671902537 0.38660568
v 0.5758000016 0.2852999866 3.946700096
vn 0.5617392063 0.3852550983 0.732139051
v 0.950600028 0.2852999866 3.297399998
vn 0.8500158191 0.5147138834 0.1119941995
v 0.9589999914 0.2852999866 3.16960001
vn 0.9789375663 0.204159826 -9.591387504e-18
v 0.2330000103 0.2852999866 2.223400116
vn 0.2390030473 0.3851056099 -0.8913872242
v 0.3542999923 0.2852999866 2.264600039
vn 0.3365572095 0.3716347814 -0.8652264476
v -0.273999989 0.2852999866 2.223400116
vn -0.2390030324 0.3851056099 -0.8913872242
# mm_gid 0
g mmGroup0
f 1//1 2//2 3//3 
f 4//4 5//5 6//6 
f 7//7 8//8 4//4 
f 5//5 4//4 8//8 
f 9//9 6//6 5//5 
f 10//10 8//8 7//7 
f 11//11 12//12 13//13 
f 11//11 13//13 14//14 
f 15//15 16//16 17//17 
f 15//15 17//17 18//18 
f 19//19 20//20 21//21 
f 19//19 21//21 22//22 
f 12//12 23//23 24//24 
f 25//25 26//26 27//27 
f 25//25 27//27 28//28 
f 20//20 29//29 30//30 
f 26//26 31//31 32//32 
f 33//33 34//34 35//35 
f 34//34 36//36 35//35 
f 36//36 37//37 35//35 
f 37//37 38//38 35//35 
f 38//38 39//39 35//35 
f 39//39 18//18 35//35 
f 18//18 17//17 35//35 
f 17//17 40//40 35//35 
f 40//40 41//41 35//35 
f 42//42 35//35 41//41 
f 43//43 44//44 45//45 
f 20//20 30//30 46//46 
f 20//20 46//46 21//21 
f 12//12 24//24 47//47 
f 12//12 47//47 13//13 
f 24//24 23//23 48//48 
f 49//49 50//50 45//45 
f 51//51 49//49 45//45 
f 26//26 32//32 52//52 
f 26//26 52//52 27//27 
f 33//33 35//35 53//53 
f 54//54 53//53 35//35 
f 55//55 56//56 35//35 
f 56//56 57//57 35//35 
f 57//57 22//22 35//35 
f 22//22 21//21 35//35 
f 21//21 46//46 35//35 
f 46//46 58//58 35//35 
f 58//58 59//59 35//35 
f 59//59 60//60 35//35 
f 54//54 35//35 60//60 
f 61//61 62//62 63//63 
f 64//64 61//61 63//63 
f 65//65 66//66 67//67 
f 49//49 51//51 66//66 
f 51//51 67//67 66//66 
f 31//31 25//25 68//68 
f 69//69 32//32 31//31 
f 51//51 45//45 70//70 
f 14//14 13//13 71//71 
f 13//13 47//47 71//71 
f 47//47 72//72 71//71 
f 72//72 73//73 71//71 
f 74//74 71//71 73//73 
f 74//74 73//73 75//75 
f 74//74 75//75 76//76 
f 74//74 76//76 77//77 
f 74//74 77//77 78//78 
f 79//79 35//35 78//78 
f 80//80 35//35 79//79 
f 28//28 35//35 80//80 
f 74//74 78//78 35//35 
f 81//81 82//82 83//83 
f 32//32 69//69 84//84 
f 7//7 51//51 70//70 
f 24//24 48//48 72//72 
f 24//24 72//72 47//47 
f 7//7 4//4 67//67 
f 7//7 67//67 51//51 
f 48//48 85//85 86//86 
f 43//43 45//45 50//50 
f 4//4 6//6 63//63 
f 4//4 63//63 67//67 
f 16//16 87//87 40//40 
f 16//16 40//40 17//17 
f 32//32 84//84 88//88 
f 32//32 88//88 52//52 
f 48//48 86//86 73//73 
f 48//48 73//73 72//72 
f 35//35 28//28 27//27 
f 35//35 27//27 52//52 
f 35//35 52//52 88//88 
f 35//35 88//88 89//89 
f 35//35 89//89 90//90 
f 35//35 90//90 91//91 
f 35//35 91//91 92//92 
f 35//35 92//92 93//93 
f 35//35 93//93 94//94 
f 35//35 94//94 95//95 
f 35//35 95//95 96//96 
f 35//35 96//96 55//55 
f 87//87 97//97 98//98 
f 87//87 98//98 41//41 
f 87//87 41//41 40//40 
f 84//84 99//99 100//100 
f 101//101 83//83 82//82 
f 82//82 81//81 102//102 
f 6//6 9//9 64//64 
f 6//6 64//64 63//63 
f 9//9 5//5 68//68 
f 9//9 68//68 64//64 
f 81//81 103//103 102//102 
f 5//5 8//8 31//31 
f 5//5 31//31 68//68 
f 98//98 104//104 42//42 
f 98//98 42//42 41//41 
f 8//8 10//10 69//69 
f 8//8 69//69 31//31 
f 102//102 105//105 106//106 
f 107//107 108//108 109//109 
f 104//104 110//110 111//111 
f 112//112 111//111 110//110 
f 84//84 100//100 89//89 
f 84//84 89//89 88//88 
f 113//113 114//114 115//115 
f 104//104 111//111 35//35 
f 104//104 35//35 42//42 
f 116//116 7//7 117//117 
f 100//100 83//83 101//101 
f 107//107 109//109 34//34 
f 107//107 34//34 33//33 
f 100//100 101//101 90//90 
f 100//100 90//90 89//89 
f 118//118 7//7 119//119 
f 120//120 7//7 118//118 
f 105//105 7//7 120//120 
f 114//114 121//121 115//115 
f 109//109 122//122 123//123 
f 111//111 112//112 35//35 
f 101//101 82//82 91//91 
f 101//101 91//91 90//90 
f 124//124 125//125 126//126 
f 127//127 126//126 128//128 
f 129//129 130//130 124//124 
f 82//82 102//102 131//131 
f 109//109 123//123 36//36 
f 109//109 36//36 34//34 
f 82//82 131//131 92//92 
f 82//82 92//92 91//91 
f 132//132 121//121 114//114 
f 123//123 122//122 133//133 
f 134//134 127//127 128//128 
f 134//134 135//135 136//136 
f 106//106 137//137 138//138 
f 139//139 106//106 138//138 
f 139//139 131//131 102//102 
f 106//106 139//139 102//102 
f 138//138 137//137 136//136 
f 140//140 136//136 137//137 
f 134//134 136//136 140//140 
f 127//127 134//134 116//116 
f 119//119 116//116 134//134 
f 131//131 139//139 93//93 
f 131//131 93//93 92//92 
f 116//116 117//117 126//126 
f 116//116 126//126 127//127 
f 117//117 141//141 124//124 
f 117//117 124//124 126//126 
f 123//123 133//133 37//37 
f 123//123 37//37 36//36 
f 139//139 138//138 94//94 
f 139//139 94//94 93//93 
f 142//142 16//16 132//132 
f 133//133 143//143 144//144 
f 138//138 136//136 95//95 
f 138//138 95//95 94//94 
f 120//120 137//137 106//106 
f 120//120 106//106 105//105 
f 118//118 140//140 137//137 
f 118//118 137//137 120//120 
f 136//136 135//135 96//96 
f 136//136 96//96 95//95 
f 133//133 144//144 38//38 
f 133//133 38//38 37//37 
f 119//119 134//134 140//140 
f 119//119 140//140 118//118 
f 135//135 134//134 128//128 
f 144//144 115//115 121//121 
f 142//142 97//97 16//16 
f 87//87 16//16 97//97 
f 55//55 96//96 135//135 
f 55//55 135//135 128//128 
f 144//144 121//121 39//39 
f 144//144 39//39 38//38 
f 121//121 132//132 15//15 
f 145//145 146//146 147//147 
f 147//147 146//146 148//148 
f 147//147 148//148 149//149 
f 147//147 149//149 150//150 
f 147//147 150//150 113//113 
f 147//147 113//113 151//151 
f 147//147 151//151 152//152 
f 147//147 152//152 153//153 
f 147//147 153//153 154//154 
f 147//147 154//154 155//155 
f 121//121 15//15 18//18 
f 121//121 18//18 39//39 
f 15//15 132//132 16//16 
f 44//44 2//2 70//70 
f 156//156 2//2 44//44 
f 157//157 2//2 156//156 
f 158//158 2//2 157//157 
f 159//159 2//2 158//158 
f 160//160 2//2 159//159 
f 161//161 2//2 160//160 
f 147//147 2//2 162//162 
f 162//162 2//2 161//161 
f 30//30 29//29 163//163 
f 164//164 165//165 163//163 
f 30//30 163//163 58//58 
f 30//30 58//58 46//46 
f 155//155 166//166 147//147 
f 166//166 2//2 147//147 
f 2//2 1//1 7//7 
f 1//1 167//167 7//7 
f 167//167 168//168 7//7 
f 168//168 169//169 7//7 
f 169//169 170//170 7//7 
f 170//170 171//171 7//7 
f 171//171 141//141 7//7 
f 141//141 117//117 7//7 
f 163//163 172//172 59//59 
f 163//163 59//59 58//58 
f 172//172 173//173 60//60 
f 172//172 60//60 59//59 
f 86//86 85//85 50//50 
f 86//86 50//50 75//75 
f 86//86 75//75 73//73 
f 173//173 174//174 54//54 
f 173//173 54//54 60//60 
f 174//174 175//175 176//176 
f 50//50 49//49 76//76 
f 50//50 76//76 75//75 
f 176//176 53//53 54//54 
f 176//176 54//54 174//174 
f 33//33 53//53 176//176 
f 33//33 176//176 107//107 
f 49//49 66//66 77//77 
f 49//49 77//77 76//76 
f 64//64 68//68 61//61 
f 25//25 28//28 61//61 
f 80//80 61//61 28//28 
f 66//66 65//65 78//78 
f 66//66 78//78 77//77 
f 65//65 67//67 62//62 
f 112//112 74//74 35//35 
f 65//65 62//62 79//79 
f 65//65 79//79 78//78 
f 23//23 12//12 177//177 
f 178//178 179//179 112//112 
f 67//67 63//63 62//62 
f 62//62 61//61 80//80 
f 62//62 80//80 79//79 
f 99//99 84//84 69//69 
f 25//25 61//61 68//68 
f 112//112 180//180 71//71 
f 112//112 71//71 74//74 
f 10//10 99//99 69//69 
f 181//181 48//48 23//23 
f 180//180 112//112 179//179 
f 180//180 11//11 14//14 
f 180//180 14//14 71//71 
f 83//83 100//100 182//182 
f 182//182 100//100 99//99 
f 25//25 31//31 26//26 
f 43//43 50//50 85//85 
f 85//85 48//48 181//181 
f 11//11 177//177 12//12 
f 156//156 85//85 181//181 
f 156//156 43//43 85//85 
f 7//7 70//70 2//2 
f 116//116 119//119 7//7 
f 7//7 105//105 103//103 
f 7//7 103//103 183//183 
f 7//7 183//183 184//184 
f 7//7 184//184 185//185 
f 7//7 185//185 186//186 
f 7//7 186//186 10//10 
f 151//151 115//115 152//152 
f 151//151 113//113 115//115 
f 132//132 114//114 150//150 
f 113//113 150//150 114//114 
f 132//132 150//150 142//142 
f 149//149 142//142 150//150 
f 97//97 142//142 148//148 
f 149//149 148//148 142//142 
f 148//148 146//146 97//97 
f 147//147 162//162 178//178 
f 162//162 161//161 179//179 
f 161//161 160//160 179//179 
f 177//177 160//160 159//159 
f 177//177 159//159 23//23 
f 158//158 23//23 159//159 
f 23//23 158//158 181//181 
f 157//157 181//181 158//158 
f 157//157 156//156 181//181 
f 43//43 156//156 44//44 
f 70//70 45//45 44//44 
f 171//171 129//129 124//124 
f 171//171 124//124 141//141 
f 129//129 171//171 170//170 
f 167//167 1//1 3//3 
f 187//187 20//20 129//129 
f 128//128 126//126 125//125 
f 129//129 170//170 187//187 
f 169//169 29//29 170//170 
f 128//128 125//125 56//56 
f 128//128 56//56 55//55 
f 186//186 99//99 10//10 
f 29//29 20//20 187//187 
f 125//125 124//124 130//130 
f 99//99 186//186 182//182 
f 185//185 182//182 186//186 
f 187//187 170//170 29//29 
f 169//169 168//168 29//29 
f 83//83 182//182 184//184 
f 185//185 184//184 182//182 
f 125//125 130//130 57//57 
f 125//125 57//57 56//56 
f 164//164 163//163 29//29 
f 130//130 129//129 19//19 
f 183//183 81//81 83//83 
f 183//183 83//83 184//184 
f 29//29 168//168 164//164 
f 81//81 183//183 103//103 
f 165//165 164//164 167//167 
f 130//130 19//19 22//22 
f 130//130 22//22 57//57 
f 105//105 102//102 103//103 
f 19//19 129//129 20//20 
f 173//173 172//172 3//3 
f 168//168 167//167 164//164 
f 115//115 144//144 143//143 
f 122//122 143//143 133//133 
f 108//108 122//122 109//109 
f 176//176 188//188 107//107 
f 108//108 107//107 189//189 
f 165//165 167//167 3//3 
f 189//189 107//107 188//188 
f 173//173 175//175 174//174 
f 172//172 163//163 165//165 
f 165//165 3//3 172//172 
f 175//175 173//173 3//3 
f 188//188 176//176 175//175 
f 108//108 189//189 154//154 
f 155//155 154//154 189//189 
f 154//154 153//153 122//122 
f 154//154 122//122 108//108 
f 143//143 122//122 152//152 
f 153//153 152//152 122//122 
f 152//152 115//115 143//143 
f 3//3 2//2 175//175 
f 188//188 175//175 166//166 
f 2//2 166//166 175//175 
f 166//166 155//155 189//189 
f 188//188 166//166 189//189 
f 190//190 110//110 104//104 
f 98//98 191//191 104//104 
f 191//191 98//98 97//97 
f 190//190 104//104 191//191 
f 177//177 11//11 192//192 
f 179//179 192//192 11//11 
f 11//11 180//180 179//179 
f 110//110 178//178 112//112 
f 146//146 191//191 97//97 
f 190//190 191//191 145//145 
f 146//146 145//145 191//191 
f 145//145 147//147 110//110 
f 145//145 110//110 190//190 
f 147//147 178//178 110//110 
f 162//162 179//179 178//178 
f 179//179 160//160 192//192 
f 160//160 177//177 192//192 
