v -1 1.224636614e-09 3.039999962
vn -0.1510094404 -0.9881051183 -0.02905895561
v -0.5092999935 1.224636503e-09 2.190000057
vn -0.2607881129 -0.8532117009 -0.4516850412
v 0.4722000062 1.224636503e-09 2.190000057
vn 0.09728106856 -0.9548135996 -0.2808333039
v 0.9629999995 1.224636614e-09 3.039999962
vn 0.2232386023 -0.9738163948 -0.042966865
v 0.4722000062 1.224636614e-09 3.890000105
vn 0.1887001246 -0.926045835 0.3268507421
v -0.5092999935 1.224636614e-09 3.890000105
vn -0.4468045235 -0.730897665 0.5159014463
v -1 0.3000000119 3.039999962
vn -0.9337401986 0.3095867634 0.1796808988
v -0.5092999935 0.3000000119 3.890000105
vn -0.2969572246 0.4206857383 0.8572280407
v -0.8507999778 0.3941000104 3.039999962
vn -0.0751632601 0.9971712232 -3.029946371e-17
v -0.8507999778 0.3000000119 3.039999962
vn -0.277885437 0.9606142044 -8.725097792e-17
v -0.4345999956 0.3000000119 3.760799885
vn -0.3392786086 0.8552268744 0.3917613924
v -0.4345999956 0.3941000104 3.760799885
vn -0.1068773419 0.945200026 0.3085030615
v 0.3975999951 0.3000000119 3.760799885
vn 0.2271214277 0.7201516032 0.6555894017
v 0.3975999951 0.3941000104 3.760799885
vn 0.07488176227 0.9934366941 0.08646517247
v 0.4722000062 0.3000000119 3.890000105
vn 0.3681412637 0.6766511798 0.6376639009
v -0.4345999956 0.3000000119 2.319299936
vn -0.3390812278 0.8553847075 -0.3915877342
v -0.4345999956 0.3941000104 2.319299936
vn -0.1068759263 0.9451875687 -0.3085417747
v 0.8137999773 0.3000000119 3.039999962
vn 0.6215825081 0.7833487391 2.064089061e-16
v 0.9629999995 0.3000000119 3.039999962
vn 0.8908706903 0.4206526577 0.1714663953
v 0.3975999951 0.3941000104 2.319299936
vn 0.07488168776 0.9934356809 -0.08647707105
v 0.8137999773 0.3941000104 3.039999962
vn 0.05643998832 0.998405993 -5.536038929e-17
v 0.4722000062 0.3000000119 2.190000057
vn 0.5938527584 0.4207989275 -0.6857602596
v 0.3975999951 0.3000000119 2.319299936
vn 0.1695996374 0.8552826643 -0.4896197915
v -0.5092999935 0.3000000119 2.190000057
vn -0.471304059 0.3339593709 -0.8162987232
# mm_gid 0
g mmGroup0
f 1//1 2//2 3//3 
f 1//1 3//3 4//4 
f 1//1 4//4 5//5 
f 6//6 1//1 5//5 
f 7//7 1//1 6//6 
f 8//8 6//6 5//5 
f 9//9 10//10 11//11 
f 9//9 11//11 12//12 
f 13//13 14//14 12//12 
f 13//13 12//12 11//11 
f 8//8 15//15 11//11 
f 13//13 11//11 15//15 
f 16//16 10//10 9//9 
f 16//16 9//9 17//17 
f 13//13 15//15 18//18 
f 19//19 18//18 15//15 
f 17//17 9//9 20//20 
f 21//21 20//20 9//9 
f 12//12 14//14 9//9 
f 21//21 9//9 14//14 
f 19//19 22//22 23//23 
f 19//19 23//23 18//18 
f 15//15 5//5 19//19 
f 5//5 15//15 8//8 
f 3//3 22//22 4//4 
f 19//19 4//4 22//22 
f 22//22 3//3 24//24 
f 7//7 8//8 10//10 
f 11//11 10//10 8//8 
f 2//2 1//1 24//24 
f 23//23 16//16 17//17 
f 23//23 17//17 20//20 
f 4//4 19//19 5//5 
f 7//7 6//6 8//8 
f 16//16 24//24 10//10 
f 18//18 21//21 14//14 
f 18//18 14//14 13//13 
f 2//2 24//24 3//3 
f 7//7 24//24 1//1 
f 18//18 23//23 20//20 
f 18//18 20//20 21//21 
f 7//7 10//10 24//24 
f 23//23 22//22 16//16 
f 24//24 16//16 22//22 
