v -0.5799999237 0.3000000119 3.769999981
vn -0.4032939374 0.4321688712 0.8065879345
v -0.5799999237 -3.747018251e-09 3.769999981
vn -0.1857344955 -0.9782016277 0.09286724776
v 1 -3.747018251e-09 3.769999981
vn 0.1747734398 -0.9204733968 0.3495468795
v 1 0.3000000119 3.769999981
vn 0.8065878749 0.4321689606 0.4032939374
v 1 0.3000000119 2.190000057
vn 0.4239991605 0.3179993033 -0.8479983211
v 1 -3.747018695e-09 2.190000057
vn 0.1857344955 -0.9782016277 -0.09286724776
v -0.5799999237 -3.747018695e-09 2.190000057
vn -0.1747734398 -0.9204733968 -0.3495468795
v -0.5799999237 0.3000000119 2.190000057
vn -0.7591352463 0.5288119912 -0.3795676231
v -0.4674999714 0.3941000104 3.657500029
vn -0.06862401962 0.9881567359 0.1372480392
v -0.4674999714 0.3000000119 3.657500029
vn -0.4549309015 0.8609862924 0.2274654508
v 0.8874999881 0.3000000119 3.657500029
vn 0.2274654508 0.8609862924 0.4549309015
v 0.8874999881 0.3941000104 3.657500029
vn 0.06923810393 0.9969993234 0.03461905196
v 0.8874999881 0.3941000104 2.30250001
vn 0.06862401962 0.9881567359 -0.1372480392
v 0.8874999881 0.3000000119 2.30250001
vn 0.354529798 0.9180881381 -0.1772648841
v -0.4674999714 0.3000000119 2.30250001
vn -0.3054631054 0.730384469 -0.6109262109
v -0.4674999714 0.3941000104 2.30250001
vn -0.06923810393 0.9969993234 -0.03461905196
# mm_gid 0
g mmGroup0
f 1//1 2//2 3//3 
f 1//1 3//3 4//4 
f 5//5 6//6 7//7 
f 5//5 7//7 8//8 
f 9//9 10//10 11//11 
f 9//9 11//11 12//12 
f 13//13 14//14 15//15 
f 13//13 15//15 16//16 
f 16//16 9//9 12//12 
f 16//16 12//12 13//13 
f 16//16 15//15 10//10 
f 16//16 10//10 9//9 
f 12//12 11//11 14//14 
f 12//12 14//14 13//13 
f 1//1 4//4 11//11 
f 1//1 11//11 10//10 
f 8//8 15//15 14//14 
f 8//8 14//14 5//5 
f 8//8 1//1 10//10 
f 8//8 10//10 15//15 
f 14//14 11//11 4//4 
f 14//14 4//4 5//5 
f 6//6 3//3 2//2 
f 6//6 2//2 7//7 
f 4//4 3//3 6//6 
f 5//5 4//4 6//6 
f 8//8 7//7 2//2 
f 1//1 8//8 2//2 
