# Object Export From Tinkercad Server 2015

mtllib obj.mtl

o obj_0
v 2.875 		-3.35 		-37.902
v 7.825 		1.65 		-42.852
v 7.583 		1.65 		-41.322
v 5.785 		-3.35 		-38.847
v 4.405 		-3.35 		-38.144
v 6.88 		1.65 		-39.942
v 37.7832 		1.65 		-39.2375
v 37.7188 		1.65 		-39.296
v 38.007 		1.65 		-39.039
v 32.4156 		1.65 		-31.9793
v 32.4178 		1.638 		-31.9773
v 32.4685 		1.287 		-31.932
v 32.5155 		0.892 		-31.89
v -47.4921 		-3.35 		-17.7828
v -47.4921 		-3.35 		-17.7828
v -47.492 		-3.35 		-17.7829
v -47.492 		-3.35 		-17.7829
v 38.1141 		1.65 		-38.9438
v 31.71 		1.65 		-32.61
v 38.2952 		1.65 		-38.7829
v 12.5203 		1.65 		-41.7811
v 31.5924 		0.892 		-32.696
v 31.6441 		1.287 		-32.6582
v 31.6993 		1.638 		-32.6178
v 31.7016 		1.65 		-32.6161
v 38.367 		1.638 		-38.719
v 38.3648 		1.65 		-38.7209
v 38.465 		0.892 		-38.632
v 13.4477 		1.65 		-41.5522
v 38.1707 		1.65 		-38.8936
v 38.2308 		1.65 		-38.8405
v 37.8433 		1.65 		-39.1845
v 37.6501 		1.65 		-39.3571
v 37.648 		1.638 		-39.359
v 37.9542 		1.65 		-39.0867
v 38.0606 		1.65 		-38.9921
v 38.418 		1.287 		-38.674
v 37.8999 		1.65 		-39.135
v 27.426 		-3.35 		-37.052
v 27.426 		1.65 		-37.052
v 2.875 		1.65 		-47.802
v 4.405 		1.65 		-47.56
v 5.785 		1.65 		-46.857
v 6.88 		-3.35 		-45.762
v 6.88 		1.65 		-45.762
v 7.583 		-3.35 		-44.382
v 7.583 		1.65 		-44.382
v 7.825 		-3.35 		-42.852
v 7.583 		-3.35 		-41.322
v 6.88 		-3.35 		-39.942
v 17.768 		-3.35 		-38.581
v 12.1443 		-3.35 		-41.8739
v 12.1483 		-2.763 		-41.873
v 12.1582 		-2.2832 		-41.8705
v 12.1605 		-2.181 		-41.8699
v 12.1768 		-1.7103 		-41.8659
v 12.1803 		-1.61 		-41.8651
v 13.7827 		-1.5125 		-41.4695
v 13.7874 		-1.61 		-41.4683
v 13.8074 		-2.181 		-41.4634
v 13.8195 		-2.763 		-41.4604
v 13.8234 		-3.35 		-41.4594
v 18.471 		-3.35 		-34.142
v 17.768 		-3.35 		-35.522
v 17.526 		-3.35 		-37.052
v 20.946 		-3.35 		-32.344
v 22.476 		-3.35 		-32.102
v -8.6198 		-0.523 		-41.4974
v -8.6551 		-1.055 		-41.4887
v -8.6597 		-1.1492 		-41.4875
v 15.0134 		1.65 		-50.8473
v 15.0865 		1.65 		-50.829
v -8.4824 		0.8178 		-41.5313
v 14.8517 		1.65 		-50.8876
v 14.9354 		1.65 		-50.8663
v -47.4921 		-3.35 		-17.7827
v -47.4921 		-3.35 		-17.7827
v 14.7618 		1.65 		-50.9093
v -47.4925 		-3.35 		-17.7816
v -47.4923 		-3.35 		-17.7823
v -47.4918 		-3.35 		-17.7834
v 15.1837 		1.65 		-48.6213
v 44.6615 		-1.61 		-15.6702
v 15.6892 		1.65 		-50.6797
v -8.4731 		0.892 		-41.5336
v 15.4375 		1.65 		-50.7419
v 15.5155 		1.65 		-50.7228
v 15.3644 		1.65 		-50.7602
v 19.566 		-3.35 		-33.047
v 15.5992 		1.65 		-50.7024
v 15.2945 		1.65 		-50.7774
v 15.225 		1.65 		-50.795
v 13.623 		0.5317 		-41.5089
v 13.6327 		0.455 		-41.5065
v 13.6816 		-0.018 		-41.4944
v 13.7172 		-0.4343 		-41.4857
v 13.7533 		-0.9616 		-41.4768
v 13.7596 		-1.055 		-41.4752
v 27.184 		-3.35 		-35.522
v 15.1563 		1.65 		-50.8118
v 12.2034 		-1.1525 		-41.8594
v 12.2082 		-1.055 		-41.8582
v 12.2371 		-0.6164 		-41.851
v 12.2434 		-0.523 		-41.8495
v 12.2855 		-0.018 		-41.8391
v 12.3345 		0.455 		-41.827
v 26.481 		-3.35 		-34.142
v 25.386 		-3.35 		-33.047
v 24.006 		-3.35 		-32.344
v 27.184 		-3.35 		-38.581
v 7.667 		1.65 		-52.596
v 31.3869 		-3.35 		-32.8462
v 12.957 		1.65 		-51.811
v 18.471 		1.65 		-39.961
v 19.566 		1.65 		-41.057
v 20.946 		1.65 		-41.76
v 22.476 		1.65 		-42.002
v -8.4222 		1.2199 		-41.5461
v 24.006 		1.65 		-41.76
v -8.4119 		1.287 		-41.5487
v -8.3572 		1.5784 		-41.5622
v -8.3458 		1.638 		-41.565
v -8.343 		1.65 		-41.5657
v 25.386 		1.65 		-41.057
v 26.481 		1.65 		-39.961
v 31.71 		-3.35 		-32.61
v 32.7041 		-3.35 		-31.7214
v 23.181 		1.65 		-48.71
v 18.146 		1.65 		-50.512
v 36.899 		1.65 		-40.488
v 32.604 		1.65 		-43.674
v 28.016 		1.65 		-46.423
v 44.454 		1.65 		-32.933
v 40.862 		1.65 		-36.896
v 5.811 		1.65 		-12.16
v -7.4156 		1.65 		-41.7946
v 8.966 		1.65 		-11.74
v 12.06 		1.65 		-11.045
v 15.063 		1.65 		-10.081
v 17.946 		1.65 		-8.858
v 20.682 		1.65 		-7.388
v 23.244 		1.65 		-5.683
v 25.607 		1.65 		-3.762
v 13.7246 		-0.523 		-41.4838
v 27.749 		1.65 		-1.643
v 44.6601 		-1.6967 		-15.6731
v 44.6525 		-2.181 		-15.6889
v 29.649 		1.65 		0.655
v 38.377 		1.65 		-18.301
v 36.847 		1.65 		-18.543
v 39.906 		1.65 		-18.543
v 37.36 		-3.35 		-39.615
v 44.6516 		-2.2694 		-15.6907
v 44.647 		-2.763 		-15.7004
v 45.1866 		1.65 		-14.469
v -47.4915 		-3.35 		-17.7844
v 45.028 		1.65 		-14.906
v 44.8139 		1.65 		-15.3525
v 44.6468 		-2.8523 		-15.7008
v 44.6451 		-3.35 		-15.7043
v 12.3805 		0.8152 		-41.8156
v 12.3902 		0.892 		-41.8132
v 12.4512 		1.287 		-41.7982
v 12.5057 		1.5764 		-41.7847
v 12.5175 		1.638 		-41.7818
v 50.7196 		1.65 		-16.5759
v 45.2489 		0.5208 		-14.2974
v 45.2519 		0.455 		-14.2892
v 45.2668 		0.0533 		-14.2483
v 45.282 		-0.4469 		-14.2063
v 45.2843 		-0.523 		-14.2001
v 45.2967 		-1.055 		-14.1658
v 44.6721 		-1.1393 		-15.6481
v 44.6739 		-1.055 		-15.6443
v 44.6897 		-0.523 		-15.6113
v 44.7086 		-0.018 		-15.5718
v 13.4505 		1.638 		-41.5515
v 44.7309 		0.455 		-15.5255
v 13.5667 		0.9614 		-41.5228
v 13.5776 		0.892 		-41.5201
v 52.662 		1.65 		-17.4141
v 13.5164 		1.287 		-41.5352
v 52.576 		1.65 		-17.6417
v 52.6025 		1.65 		-17.5705
v 52.6306 		1.65 		-17.4954
v 52.4999 		1.65 		-17.843
v 52.5501 		1.65 		-17.709
v 52.694 		1.65 		-17.3277
v 37.363 		-2.763 		-39.612
v 52.474 		1.65 		-17.9103
v 52.388 		1.65 		-18.1379
v 52.356 		1.65 		-18.2243
v 52.4475 		1.65 		-17.9815
v 52.4194 		1.65 		-18.0566
v 37.372 		-2.181 		-39.604
v 37.388 		-1.61 		-39.59
v 35.467 		1.65 		-19.246
v 34.372 		1.65 		-20.341
v 33.669 		1.65 		-21.721
v 33.427 		1.65 		-23.251
v 33.669 		1.65 		-24.781
v 34.372 		1.65 		-26.161
v 35.467 		1.65 		-27.256
v 36.847 		1.65 		-27.959
v 45.2693 		-0.018 		-14.2412
v 38.377 		1.65 		-28.201
v 38.5939 		-3.35 		-38.3959
v 38.654 		-3.35 		-38.464
v 43.085 		1.65 		-21.721
v 42.382 		1.65 		-20.341
v 41.286 		1.65 		-19.246
v 39.906 		1.65 		-27.959
v 41.286 		1.65 		-27.256
v 42.382 		1.65 		-26.161
v 43.085 		1.65 		-24.781
v 43.327 		1.65 		-23.251
v 38.0059 		-3.35 		-39.04
v 38.0067 		-3.35 		-39.0392
v 52.676 		1.65 		-19.215
v 38.0069 		-3.35 		-39.0391
v 50.39 		1.65 		-24.05
v 47.64 		1.65 		-28.637
v 56.825 		1.65 		1.641
v 56.563 		1.65 		-3.7
v 55.778 		1.65 		-8.991
v 54.478 		1.65 		-14.179
v 38.007 		-3.35 		-39.039
v 38.007 		-3.35 		-39.039
v 38.0071 		-3.35 		-39.0389
v 38.0074 		-3.35 		-39.0387
v 38.0081 		-3.35 		-39.038
v 2.325 		1.65 		-52.859
v 38.007 		-3.35 		-39.039
v 1.345 		1.65 		-38.144
v 38.0068 		-3.35 		-39.0392
v 38.0069 		-3.35 		-39.0391
v 38.0065 		-3.35 		-39.0395
v 38.0066 		-3.35 		-39.0393
v 38.0071 		-3.35 		-39.0389
v 38.0068 		-3.35 		-39.0391
v 38.0069 		-3.35 		-39.0391
v 38.0073 		-3.35 		-39.0388
v 38.0071 		-3.35 		-39.0389
v 38.0071 		-3.35 		-39.039
v 38.007 		-3.35 		-39.039
v 38.007 		-3.35 		-39.039
v 38.007 		-3.35 		-39.039
v 38.0072 		-3.35 		-39.0389
v 38.0071 		-3.35 		-39.0389
v 38.007 		-3.35 		-39.039
v 38.007 		-3.35 		-39.039
v 38.0072 		-3.35 		-39.0388
v 38.0069 		-3.35 		-39.0391
v 38.007 		-3.35 		-39.039
v 38.0069 		-3.35 		-39.0391
v 38.0075 		-3.35 		-39.0385
v 2.875 		-3.35 		-47.802
v 4.405 		-3.35 		-47.56
v 5.785 		-3.35 		-46.857
v 14.402 		-2.181 		-50.998
v 14.39 		-2.763 		-51.001
v 45.1876 		1.638 		-14.4663
v 45.2075 		1.3399 		-14.4115
v 45.211 		1.287 		-14.4018
v 45.2325 		0.892 		-14.3426
v 14.386 		-3.35 		-51.002
v 14.422 		-1.61 		-50.994
v 44.7518 		0.8258 		-15.482
v 44.7788 		1.2272 		-15.4255
v 44.783 		1.287 		-15.4169
v 44.8126 		1.638 		-15.3551
v -0.035 		1.65 		-38.847
v -1.13 		1.65 		-39.942
v -1.833 		1.65 		-41.322
v -2.075 		1.65 		-42.852
v -1.833 		1.65 		-44.382
v -1.13 		1.65 		-45.762
v 14.527 		-0.018 		-50.967
v 14.485 		-0.523 		-50.978
v 16.065 		-3.35 		-50.587
v 14.45 		-1.055 		-50.987
v -10.5102 		1.65 		-50.3907
v 14.576 		0.455 		-50.955
v -10.4202 		1.65 		-50.4124
v -10.046 		1.65 		-50.505
v -10.1155 		1.65 		-50.4883
v -9.6727 		1.65 		-50.5976
v -9.7564 		1.65 		-50.5772
v -9.8344 		1.65 		-50.5581
v -9.9773 		1.65 		-50.5226
v -9.9075 		1.65 		-50.5398
v -10.1854 		1.65 		-50.471
v -10.3365 		1.65 		-50.4337
v -10.2585 		1.65 		-50.4527
v -9.5828 		1.65 		-50.6203
v 15.874 		0.455 		-50.634
v 15.923 		-0.018 		-50.622
v -9.0773 		1.65 		-48.5619
v 16.029 		-1.61 		-50.596
v 16.049 		-2.181 		-50.591
v 16.061 		-2.763 		-50.588
v -0.035 		1.65 		-46.857
v 1.345 		1.65 		-47.56
v 16.001 		-1.055 		-50.603
v -3.017 		1.65 		-52.596
v -8.307 		1.65 		-51.811
v -32.2462 		1.65 		-39.1701
v -32.3802 		1.65 		-39.0514
v -32.4403 		1.65 		-38.9983
v -32.3158 		1.65 		-39.109
v 15.966 		-0.523 		-50.611
v -32.4969 		1.65 		-38.948
v -32.7677 		1.65 		-38.7066
v -32.7111 		1.65 		-38.7568
v -32.604 		1.65 		-38.852
v -32.5504 		1.65 		-38.8997
v -32.8278 		1.65 		-38.6535
v -32.9609 		1.65 		-38.5349
v -32.8922 		1.65 		-38.5959
v 15.2248 		-3.35 		-50.7951
v 15.225 		-3.35 		-50.795
v 15.225 		-3.35 		-50.795
v 15.225 		-3.35 		-50.795
v -27.2595 		1.65 		-32.0741
v 15.2251 		-3.35 		-50.795
v 15.2252 		-3.35 		-50.795
v 15.2252 		-3.35 		-50.7949
v 15.2253 		-3.35 		-50.7949
v 15.2255 		-3.35 		-50.7949
v 15.2257 		-3.35 		-50.7948
v 15.2264 		-3.35 		-50.7947
v 15.2253 		-3.35 		-50.7949
v 15.2251 		-3.35 		-50.795
v 44.7555 		0.892 		-15.4742
v 15.2251 		-3.35 		-50.795
v 15.2251 		-3.35 		-50.795
v -26.5367 		1.65 		-32.7001
v -26.66 		1.65 		-32.61
v 15.2243 		-3.35 		-50.7952
v 15.2236 		-3.35 		-50.7954
v 15.2249 		-3.35 		-50.795
v 15.2249 		-3.35 		-50.795
v 15.225 		-3.35 		-50.795
v 15.225 		-3.35 		-50.795
v 15.2251 		-3.35 		-50.795
v 15.225 		-3.35 		-50.795
v 15.225 		-3.35 		-50.795
v 15.2249 		-3.35 		-50.795
v 15.2248 		-3.35 		-50.795
v 15.2247 		-3.35 		-50.7951
v 15.2247 		-3.35 		-50.7951
v 15.2249 		-3.35 		-50.795
v 15.2249 		-3.35 		-50.795
v 15.2249 		-3.35 		-50.795
v 15.2249 		-3.35 		-50.795
v 15.2245 		-3.35 		-50.7951
v 15.2249 		-3.35 		-50.795
v 15.2249 		-3.35 		-50.795
v 15.225 		-3.35 		-50.795
v -21.931 		1.65 		-34.542
v 15.225 		-3.35 		-50.795
v -22.634 		1.65 		-35.922
v -22.876 		1.65 		-37.452
v -22.634 		1.65 		-38.982
v 15.2249 		-3.35 		-50.795
v -17.926 		1.65 		-32.502
v -19.456 		1.65 		-32.744
v -20.836 		1.65 		-33.447
v -13.921 		1.65 		-34.542
v -15.016 		1.65 		-33.447
v -16.396 		1.65 		-32.744
v -12.976 		1.65 		-37.452
v -13.218 		1.65 		-35.922
v -13.218 		1.65 		-38.982
v -21.931 		1.65 		-40.361
v -20.836 		1.65 		-41.457
v -19.456 		1.65 		-42.16
v -17.926 		1.65 		-42.402
v -16.396 		1.65 		-42.16
v -15.016 		1.65 		-41.457
v -13.921 		1.65 		-40.361
v -13.496 		1.65 		-50.512
v -18.531 		1.65 		-48.71
v -23.366 		1.65 		-46.423
v -27.954 		1.65 		-43.674
v -32.249 		1.65 		-40.488
v -36.212 		1.65 		-36.896
v -39.804 		1.65 		-32.933
v 2.625 		1.65 		-12.301
v -9.813 		1.65 		-10.081
v -6.81 		1.65 		-11.045
v -3.716 		1.65 		-11.74
v -0.561 		1.65 		-12.16
v -30.422 		1.65 		-21.291
v -31.517 		1.65 		-20.196
v -32.897 		1.65 		-19.493
v -32.897 		1.65 		-28.909
v -31.517 		1.65 		-28.206
v -30.422 		1.65 		-27.111
v -29.719 		1.65 		-25.731
v -29.477 		1.65 		-24.201
v -29.719 		1.65 		-22.671
v -24.399 		1.65 		0.655
v -22.499 		1.65 		-1.643
v -20.357 		1.65 		-3.762
v -17.994 		1.65 		-5.683
v -15.432 		1.65 		-7.388
v -47.797 		-2.763 		-16.976
v -12.696 		1.65 		-8.858
v 15.2249 		-3.35 		-50.795
v -47.4669 		1.65 		-17.85
v -47.492 		1.65 		-17.783
v -47.5695 		1.65 		-17.5783
v -47.5976 		1.65 		-17.5033
v -47.661 		1.65 		-17.3347
v -47.543 		1.65 		-17.6487
v 7.667 		-3.35 		-52.596
v 12.957 		-3.35 		-51.811
v 18.471 		-3.35 		-39.961
v -47.629 		1.65 		-17.422
v 19.566 		-3.35 		-41.057
v -47.355 		1.65 		-18.1449
v -47.3864 		1.65 		-18.0636
v -47.441 		1.65 		-17.9181
v -47.4145 		1.65 		-17.9885
v -47.323 		1.65 		-18.2313
v -32.6045 		-3.35 		-38.8515
v -32.6044 		-3.35 		-38.8517
v -32.6042 		-3.35 		-38.8519
v -32.6041 		-3.35 		-38.8519
v -32.6041 		-3.35 		-38.8519
v -32.604 		-3.35 		-38.852
v -45.3486 		1.65 		-17.4795
v -7.3581 		1.3466 		-41.8088
v -7.3467 		1.287 		-41.8116
v -7.2857 		0.892 		-41.8267
v -7.4128 		1.638 		-41.7953
v -47.785 		-1.61 		-17.007
v -40.1364 		1.65 		-14.4695
v -39.7637 		1.65 		-15.3529
v -39.978 		1.65 		-14.906
v -34.427 		1.65 		-19.251
v -35.957 		1.65 		-19.493
v -37.337 		1.65 		-20.196
v -38.432 		1.65 		-21.291
v -39.135 		1.65 		-22.671
v -39.377 		1.65 		-24.201
v -39.135 		1.65 		-25.731
v -38.432 		1.65 		-27.111
v -37.337 		1.65 		-28.206
v -35.957 		1.65 		-28.909
v -34.427 		1.65 		-29.151
v -42.99 		1.65 		-28.637
v -45.74 		1.65 		-24.05
v -48.026 		1.65 		-19.215
v -49.828 		1.65 		-14.179
v -51.128 		1.65 		-8.991
v -51.913 		1.65 		-3.7
v -52.175 		1.65 		1.641
v 25.607 		1.65 		37.464
v -32.604 		-3.35 		-38.852
v 23.244 		1.65 		39.385
v 20.682 		1.65 		41.09
v -32.604 		-3.35 		-38.852
v 17.946 		1.65 		42.56
v 15.063 		1.65 		43.783
v 12.06 		1.65 		44.747
v 8.966 		1.65 		45.442
v -32.6041 		-3.35 		-38.8519
v 5.811 		1.65 		45.862
v -32.6041 		-3.35 		-38.8519
v -32.6041 		-3.35 		-38.852
v 31.289 		1.65 		3.109
v 32.653 		1.65 		5.695
v 33.727 		1.65 		8.389
v 34.502 		1.65 		11.164
v 34.97 		1.65 		13.994
v 35.127 		1.65 		16.851
v -32.6051 		-3.35 		-38.851
v 34.97 		1.65 		19.708
v 34.502 		1.65 		22.538
v -32.6042 		-3.35 		-38.8518
v 33.727 		1.65 		25.313
v 32.653 		1.65 		28.007
v 31.289 		1.65 		30.593
v 29.649 		1.65 		33.047
v -32.604 		-3.35 		-38.852
v 27.749 		1.65 		35.345
v 56.563 		1.65 		6.983
v 36.899 		1.65 		43.771
v 40.862 		1.65 		40.179
v 44.454 		1.65 		36.216
v 47.64 		1.65 		31.92
v 50.39 		1.65 		27.333
v 52.676 		1.65 		22.498
v 54.478 		1.65 		17.462
v 55.778 		1.65 		12.274
v -32.6043 		-3.35 		-38.8518
v -32.604 		-3.35 		-38.852
v 7.667 		1.65 		55.879
v 12.957 		1.65 		55.094
v 18.146 		1.65 		53.795
v 23.181 		1.65 		51.993
v 28.016 		1.65 		49.706
v 32.604 		1.65 		46.957
v 2.625 		1.65 		46.003
v -32.604 		-3.35 		-38.852
v -32.604 		-3.35 		-38.852
v -32.6039 		-3.35 		-38.8521
v 2.325 		1.65 		56.142
v -32.6039 		-3.35 		-38.8521
v -0.561 		1.65 		45.862
v -3.716 		1.65 		45.442
v -6.81 		1.65 		44.747
v -9.813 		1.65 		43.783
v -3.017 		1.65 		55.879
v -32.604 		-3.35 		-38.852
v -8.307 		1.65 		55.094
v -12.696 		1.65 		42.56
v -32.6039 		-3.35 		-38.8521
v -15.432 		1.65 		41.09
v -17.994 		1.65 		39.385
v -20.357 		1.65 		37.464
v -32.6039 		-3.35 		-38.8521
v -32.6038 		-3.35 		-38.8521
v -32.6038 		-3.35 		-38.8522
v -22.499 		1.65 		35.345
v -24.399 		1.65 		33.047
v -32.6037 		-3.35 		-38.8522
v -26.039 		1.65 		30.593
v -27.403 		1.65 		28.007
v -28.477 		1.65 		25.313
v -32.6036 		-3.35 		-38.8523
v -29.252 		1.65 		22.538
v -29.72 		1.65 		19.708
v -32.6039 		-3.35 		-38.8521
v -29.877 		1.65 		16.851
v -29.72 		1.65 		13.994
v -29.252 		1.65 		11.164
v -28.477 		1.65 		8.389
v -27.403 		1.65 		5.695
v -26.039 		1.65 		3.109
v -27.954 		1.65 		46.957
v -23.366 		1.65 		49.706
v -18.531 		1.65 		51.993
v -13.496 		1.65 		53.795
v -45.74 		1.65 		27.333
v -42.99 		1.65 		31.92
v -39.804 		1.65 		36.216
v -36.212 		1.65 		40.179
v -32.249 		1.65 		43.771
v -51.913 		1.65 		6.983
v -32.6035 		-3.35 		-38.8525
v -32.6029 		-3.35 		-38.853
v 38.651 		-2.763 		-38.466
v -47.793 		-2.181 		-16.987
v 20.946 		-3.35 		-41.76
v 22.476 		-3.35 		-42.002
v 24.006 		-3.35 		-41.76
v 25.386 		-3.35 		-41.057
v 26.481 		-3.35 		-39.961
v 18.146 		-3.35 		-50.512
v 23.181 		-3.35 		-48.71
v 28.016 		-3.35 		-46.423
v 32.604 		-3.35 		-43.674
v 36.899 		-3.35 		-40.488
v 52.832 		-3.35 		-16.964
v 38.642 		-2.181 		-38.475
v 52.5247 		-3.35 		-17.7767
v 52.5245 		-3.35 		-17.7774
v 52.5248 		-3.35 		-17.7764
v 52.5249 		-3.35 		-17.7763
v -47.747 		-0.018 		-17.108
v -47.762 		-0.523 		-17.068
v -47.729 		0.455 		-17.156
v -47.775 		-1.055 		-17.033
v -47.199 		-1.61 		-18.56
v -47.187 		-2.763 		-18.591
v -47.185 		-3.35 		-18.595
v 38.626 		-1.61 		-38.488
v -47.1002 		-3.35 		-18.5627
v -47.191 		-2.181 		-18.579
v 52.5249 		-3.35 		-17.7763
v 52.5249 		-3.35 		-17.7762
v 52.5249 		-3.35 		-17.7762
v -51.128 		1.65 		12.274
v -49.828 		1.65 		17.462
v -48.026 		1.65 		22.498
v 52.525 		-3.35 		-17.7761
v 44.454 		-3.35 		-32.933
v 40.862 		-3.35 		-36.896
v 52.525 		-3.35 		-17.776
v 52.525 		-3.35 		-17.776
v 52.525 		-3.35 		-17.7759
v 52.525 		-3.35 		-17.7759
v 52.5251 		-3.35 		-17.7757
v 52.5251 		-3.35 		-17.7757
v 52.5252 		-3.35 		-17.7756
v 52.5255 		-3.35 		-17.7746
v 52.5249 		-3.35 		-17.7761
v 52.525 		-3.35 		-17.7761
v 52.525 		-3.35 		-17.7761
v 52.525 		-3.35 		-17.776
v 2.875 		1.65 		-37.902
v 5.785 		1.65 		-38.847
v 52.525 		-3.35 		-17.776
v 4.405 		1.65 		-38.144
v 52.525 		-3.35 		-17.7761
v 17.768 		1.65 		-38.581
v 52.525 		-3.35 		-17.776
v 52.525 		-3.35 		-17.776
v 18.471 		1.65 		-34.142
v 52.525 		-3.35 		-17.776
v 52.525 		-3.35 		-17.776
v 17.768 		1.65 		-35.522
v 17.526 		1.65 		-37.052
v 20.946 		1.65 		-32.344
v 22.476 		1.65 		-32.102
v 52.525 		-3.35 		-17.7759
v 19.566 		1.65 		-33.047
v 52.525 		-3.35 		-17.7759
v 52.5251 		-3.35 		-17.7759
v 27.184 		1.65 		-35.522
v 52.5251 		-3.35 		-17.7758
v 26.481 		1.65 		-34.142
v -0.035 		-3.35 		-38.847
v 25.386 		1.65 		-33.047
v -1.13 		-3.35 		-39.942
v 52.5251 		-3.35 		-17.7758
v 24.006 		1.65 		-32.344
v -1.833 		-3.35 		-41.322
v -2.075 		-3.35 		-42.852
v 27.184 		1.65 		-38.581
v -1.833 		-3.35 		-44.382
v -1.13 		-3.35 		-45.762
v 31.3903 		-2.763 		-32.8437
v 31.4001 		-2.181 		-32.8366
v 31.4173 		-1.61 		-32.824
v 52.5253 		-3.35 		-17.7753
v -10.882 		-2.763 		-50.299
v -10.886 		-3.35 		-50.298
v -10.0465 		-3.35 		-50.5049
v -10.0461 		-3.35 		-50.505
v -10.0461 		-3.35 		-50.505
v -10.046 		-3.35 		-50.505
v -10.046 		-3.35 		-50.505
v 5.811 		-3.35 		-12.16
v 8.966 		-3.35 		-11.74
v 12.06 		-3.35 		-11.045
v 15.063 		-3.35 		-10.081
v 17.946 		-3.35 		-8.858
v 20.682 		-3.35 		-7.388
v 23.244 		-3.35 		-5.683
v 25.607 		-3.35 		-3.762
v 27.749 		-3.35 		-1.643
v 29.649 		-3.35 		0.655
v 37.409 		-1.055 		-39.571
v 31.4403 		-1.055 		-32.8072
v 31.4696 		-0.523 		-32.7858
v 36.847 		-3.35 		-18.543
v 38.377 		-3.35 		-18.301
v 39.906 		-3.35 		-18.543
v 37.436 		-0.523 		-39.547
v 37.507 		0.455 		-39.484
v 37.469 		-0.018 		-39.518
v 45.028 		-3.35 		-14.906
v 45.3194 		-3.35 		-14.1034
v 38.605 		-1.055 		-38.507
v 32.6766 		-1.61 		-31.746
v 32.6919 		-2.181 		-31.7323
v 32.7036 		-3.2521 		-31.7219
v 32.7014 		-2.763 		-31.7238
v -47.237 		-0.018 		-18.458
v -47.222 		-0.523 		-18.499
v -47.209 		-1.055 		-18.533
v -10.0463 		-3.35 		-50.5049
v -10.0462 		-3.35 		-50.505
v -10.0461 		-3.35 		-50.505
v -47.255 		0.455 		-18.411
v -10.0463 		-3.35 		-50.5049
v -10.0462 		-3.35 		-50.505
v -10.0474 		-3.35 		-50.5047
v -10.0467 		-3.35 		-50.5048
v -10.0461 		-3.35 		-50.505
v 32.5889 		0.0616 		-31.8243
v 32.5953 		-0.018 		-31.8186
v 32.6281 		-0.523 		-31.7893
v 32.6509 		-0.9655 		-31.769
v 32.6554 		-1.055 		-31.7649
v 31.5052 		-0.018 		-32.7597
v 31.5465 		0.455 		-32.7295
v -10.046 		-3.35 		-50.505
v -47.662 		1.638 		-17.332
v 14.693 		1.287 		-50.927
v -10.0461 		-3.35 		-50.505
v -10.046 		-3.35 		-50.505
v 32.5577 		0.455 		-31.8522
v -47.709 		0.892 		-17.209
v 14.632 		0.892 		-50.942
v 14.759 		1.638 		-50.91
v -10.0459 		-3.35 		-50.505
v -10.0459 		-3.35 		-50.505
v -10.0459 		-3.35 		-50.505
v -10.046 		-3.35 		-50.505
v -10.046 		-3.35 		-50.505
v -10.0459 		-3.35 		-50.505
v -10.046 		-3.35 		-50.505
v -10.0459 		-3.35 		-50.505
v -47.687 		1.287 		-17.268
v -10.0458 		-3.35 		-50.505
v -10.0458 		-3.35 		-50.5051
v -10.0457 		-3.35 		-50.5051
v -10.0457 		-3.35 		-50.5051
v -10.0446 		-3.35 		-50.5054
v -10.0453 		-3.35 		-50.5052
v -10.0455 		-3.35 		-50.5051
v -47.322 		1.638 		-18.234
v -47.297 		1.287 		-18.298
v -47.275 		0.892 		-18.357
v 52.83 		-2.763 		-16.968
v 52.218 		-3.35 		-18.588
v 35.467 		-3.35 		-19.246
v 34.372 		-3.35 		-20.341
v 33.669 		-3.35 		-21.721
v 33.427 		-3.35 		-23.251
v 33.669 		-3.35 		-24.781
v 34.372 		-3.35 		-26.161
v 35.467 		-3.35 		-27.256
v 36.847 		-3.35 		-27.959
v 38.377 		-3.35 		-28.201
v 15.819 		0.892 		-50.648
v 43.085 		-3.35 		-21.721
v 42.382 		-3.35 		-20.341
v 41.286 		-3.35 		-19.246
v 39.906 		-3.35 		-27.959
v 41.286 		-3.35 		-27.256
v 42.382 		-3.35 		-26.161
v 43.085 		-3.35 		-24.781
v 43.327 		-3.35 		-23.251
v 15.692 		1.638 		-50.679
v 47.64 		-3.35 		-28.637
v 50.39 		-3.35 		-24.05
v 52.676 		-3.35 		-19.215
v 54.478 		-3.35 		-14.179
v 55.778 		-3.35 		-8.991
v 56.563 		-3.35 		-3.7
v 56.825 		-3.35 		1.641
v 2.325 		-3.35 		-52.859
v 1.345 		-3.35 		-38.144
v 52.818 		-1.61 		-16.999
v -31.969 		-2.181 		-39.417
v -31.985 		-1.61 		-39.403
v -8.7188 		-3.35 		-41.4729
v 15.758 		1.287 		-50.663
v -7.0396 		-3.35 		-41.8874
v -31.96 		-2.763 		-39.425
v -31.957 		-3.35 		-39.428
v 38.578 		-0.523 		-38.532
v -32.006 		-1.055 		-39.384
v 45.3065 		-1.61 		-14.1388
v 45.3125 		-2.095 		-14.1223
v 45.3135 		-2.181 		-14.1195
v 45.3178 		-2.763 		-14.1076
v 38.545 		-0.018 		-38.561
v 52.826 		-2.181 		-16.98
v 38.507 		0.455 		-38.594
v 37.549 		0.892 		-39.446
v 37.597 		1.287 		-39.404
v -9.207 		-3.35 		-50.713
v -9.1853 		-3.35 		-50.6246
v 52.795 		-0.523 		-17.06
v 52.808 		-1.055 		-17.026
v -0.035 		-3.35 		-46.857
v 1.345 		-3.35 		-47.56
v 52.762 		0.455 		-17.149
v 52.78 		-0.018 		-17.101
v -39.978 		-3.35 		-14.906
v -39.6112 		-1.61 		-15.6708
v -39.6036 		-2.0941 		-15.6866
v -39.5976 		-2.6744 		-15.6991
v -39.5968 		-2.763 		-15.7009
v -39.5951 		-3.2615 		-15.7043
v -39.5949 		-3.35 		-15.7048
v -40.2689 		-3.35 		-14.1046
v -40.2674 		-2.763 		-14.1088
v -40.264 		-2.2689 		-14.1181
v -40.2571 		-1.6962 		-14.1371
v -40.2561 		-1.61 		-14.14
v -39.6023 		-2.181 		-15.6894
v -40.2634 		-2.181 		-14.1199
v -39.6841 		0.5214 		-15.5188
v -39.6618 		0.0539 		-15.5652
v -39.6584 		-0.018 		-15.5723
v -39.6395 		-0.523 		-15.6118
v -39.6237 		-1.055 		-15.6447
v -40.248 		-1.1388 		-14.1622
v -40.2357 		-0.6033 		-14.1961
v -40.2338 		-0.523 		-14.2013
v -40.2214 		-0.0943 		-14.2354
v -40.2192 		-0.018 		-14.2416
v -40.2017 		0.455 		-14.2898
v -39.6803 		0.455 		-15.5266
v -40.2465 		-1.055 		-14.1663
v -8.307 		-3.35 		-51.811
v -3.017 		-3.35 		-52.596
v -40.1823 		0.892 		-14.3431
v -40.141 		1.585 		-14.4571
v -40.1374 		1.638 		-14.4668
v -33.251 		-3.35 		-38.277
v -40.1609 		1.287 		-14.4023
v -39.7624 		1.638 		-15.3555
v -39.7371 		1.3403 		-15.4083
v -39.7326 		1.287 		-15.4176
v -39.7053 		0.892 		-15.4746
v -34.427 		-3.35 		-19.251
v -35.957 		-3.35 		-19.493
v -37.337 		-3.35 		-20.196
v -38.432 		-3.35 		-21.291
v -39.135 		-3.35 		-22.671
v -39.377 		-3.35 		-24.201
v -39.135 		-3.35 		-25.731
v -38.432 		-3.35 		-27.111
v -37.337 		-3.35 		-28.206
v -35.957 		-3.35 		-28.909
v -34.427 		-3.35 		-29.151
v 7.667 		-3.35 		55.879
v 12.957 		-3.35 		55.094
v 18.146 		-3.35 		53.795
v 23.181 		-3.35 		51.993
v 28.016 		-3.35 		49.706
v 32.604 		-3.35 		46.957
v 36.899 		-3.35 		43.771
v -32.033 		-0.523 		-39.36
v 40.862 		-3.35 		40.179
v 44.454 		-3.35 		36.216
v 47.64 		-3.35 		31.92
v 50.39 		-3.35 		27.333
v 52.676 		-3.35 		22.498
v 54.478 		-3.35 		17.462
v 55.778 		-3.35 		12.274
v 56.563 		-3.35 		6.983
v 25.607 		-3.35 		37.464
v 23.244 		-3.35 		39.385
v 20.682 		-3.35 		41.09
v 17.946 		-3.35 		42.56
v 15.063 		-3.35 		43.783
v 12.06 		-3.35 		44.747
v 8.966 		-3.35 		45.442
v 5.811 		-3.35 		45.862
v 31.289 		-3.35 		3.109
v 32.653 		-3.35 		5.695
v 33.727 		-3.35 		8.389
v 34.502 		-3.35 		11.164
v 34.97 		-3.35 		13.994
v 35.127 		-3.35 		16.851
v 34.97 		-3.35 		19.708
v 34.502 		-3.35 		22.538
v 33.727 		-3.35 		25.313
v 32.653 		-3.35 		28.007
v 31.289 		-3.35 		30.593
v 29.649 		-3.35 		33.047
v 27.749 		-3.35 		35.345
v -26.66 		-3.35 		-32.61
v -26.2226 		-3.35 		-32.9298
v 2.325 		-3.35 		56.142
v -27.954 		-3.35 		46.957
v -23.366 		-3.35 		49.706
v -18.531 		-3.35 		51.993
v -13.496 		-3.35 		53.795
v -8.307 		-3.35 		55.094
v -27.5489 		-3.35 		-31.8154
v -3.017 		-3.35 		55.879
v 2.625 		-3.35 		46.003
v -0.561 		-3.35 		45.862
v -3.716 		-3.35 		45.442
v -6.81 		-3.35 		44.747
v -9.813 		-3.35 		43.783
v -21.931 		-3.35 		-34.542
v -12.696 		-3.35 		42.56
v -22.634 		-3.35 		-35.922
v -15.432 		-3.35 		41.09
v -22.876 		-3.35 		-37.452
v -17.994 		-3.35 		39.385
v -20.357 		-3.35 		37.464
v -22.634 		-3.35 		-38.982
v -22.499 		-3.35 		35.345
v -24.399 		-3.35 		33.047
v -26.039 		-3.35 		30.593
v -27.403 		-3.35 		28.007
v -19.456 		-3.35 		-32.744
v -17.926 		-3.35 		-32.502
v -28.477 		-3.35 		25.313
v -20.836 		-3.35 		-33.447
v -29.252 		-3.35 		22.538
v -29.72 		-3.35 		19.708
v -13.921 		-3.35 		-34.542
v -29.877 		-3.35 		16.851
v -15.016 		-3.35 		-33.447
v -29.72 		-3.35 		13.994
v -16.396 		-3.35 		-32.744
v -29.252 		-3.35 		11.164
v -28.477 		-3.35 		8.389
v -27.403 		-3.35 		5.695
v -12.976 		-3.35 		-37.452
v -26.039 		-3.35 		3.109
v -13.218 		-3.35 		-35.922
v -51.913 		-3.35 		6.983
v -51.128 		-3.35 		12.274
v -49.828 		-3.35 		17.462
v -48.026 		-3.35 		22.498
v -45.74 		-3.35 		27.333
v -13.218 		-3.35 		-38.982
v -42.99 		-3.35 		31.92
v -39.804 		-3.35 		36.216
v -36.212 		-3.35 		40.179
v -32.249 		-3.35 		43.771
v -21.931 		-3.35 		-40.361
v -20.836 		-3.35 		-41.457
v -19.456 		-3.35 		-42.16
v -17.926 		-3.35 		-42.402
v -16.396 		-3.35 		-42.16
v -15.016 		-3.35 		-41.457
v -13.921 		-3.35 		-40.361
v -18.531 		-3.35 		-48.71
v -13.496 		-3.35 		-50.512
v -32.249 		-3.35 		-40.488
v -27.954 		-3.35 		-43.674
v -23.366 		-3.35 		-46.423
v -39.804 		-3.35 		-32.933
v -36.212 		-3.35 		-36.896
v 2.625 		-3.35 		-12.301
v 52.224 		-2.181 		-18.572
v 52.22 		-2.763 		-18.584
v 52.232 		-1.61 		-18.553
v -9.813 		-3.35 		-10.081
v -33.104 		0.455 		-38.407
v -33.142 		-0.018 		-38.374
v -6.81 		-3.35 		-11.045
v -3.716 		-3.35 		-11.74
v -0.561 		-3.35 		-12.16
v -30.422 		-3.35 		-21.291
v -31.517 		-3.35 		-20.196
v -32.897 		-3.35 		-19.493
v -32.897 		-3.35 		-28.909
v -31.517 		-3.35 		-28.206
v -30.422 		-3.35 		-27.111
v -29.719 		-3.35 		-25.731
v -29.477 		-3.35 		-24.201
v -29.719 		-3.35 		-22.671
v -24.399 		-3.35 		0.655
v -22.499 		-3.35 		-1.643
v -20.357 		-3.35 		-3.762
v -17.994 		-3.35 		-5.683
v -15.432 		-3.35 		-7.388
v -12.696 		-3.35 		-8.858
v 52.242 		-1.055 		-18.526
v 52.255 		-0.523 		-18.492
v 52.27 		-0.018 		-18.451
v -32.066 		-0.018 		-39.331
v 52.288 		0.455 		-18.403
v -32.104 		0.455 		-39.297
v -47.799 		-3.35 		-16.972
v -47.4917 		-3.35 		-17.7837
v -47.4919 		-3.35 		-17.7832
v -47.4919 		-3.35 		-17.7831
v -47.492 		-3.35 		-17.7831
v -47.492 		-3.35 		-17.7831
v 52.695 		1.638 		-17.325
v -47.492 		-3.35 		-17.783
v -47.492 		-3.35 		-17.783
v -47.492 		-3.35 		-17.783
v 52.72 		1.287 		-17.261
v 52.742 		0.892 		-17.202
v -47.492 		-3.35 		-17.783
v -47.492 		-3.35 		-17.783
v -47.492 		-3.35 		-17.7829
v -47.492 		-3.35 		-17.7829
v -47.4919 		-3.35 		-17.7833
v -47.4919 		-3.35 		-17.7833
v -47.4919 		-3.35 		-17.7832
v -47.492 		-3.35 		-17.7831
v -47.492 		-3.35 		-17.7831
v -33.061 		0.892 		-38.445
v -47.492 		-3.35 		-17.783
v -47.492 		-3.35 		-17.7829
v -10.85 		-1.61 		-50.306
v -10.87 		-2.181 		-50.302
v -32.146 		0.892 		-39.259
v 52.355 		1.638 		-18.227
v 52.331 		1.287 		-18.291
v -47.4922 		-3.35 		-17.7826
v 52.308 		0.892 		-18.35
v -32.244 		1.638 		-39.172
v -32.193 		1.287 		-39.218
v -33.014 		1.287 		-38.487
v -7.0804 		-1.5158 		-41.8774
v -7.0758 		-1.61 		-41.8785
v -7.0558 		-2.181 		-41.8835
v -7.0405 		-3.2512 		-41.8872
v -32.963 		1.638 		-38.533
v -8.7148 		-2.763 		-41.4739
v -8.7028 		-2.181 		-41.4769
v -8.6863 		-1.7069 		-41.4809
v -8.6829 		-1.61 		-41.4818
v -7.0438 		-2.763 		-41.8864
v -45.74 		-3.35 		-24.05
v -42.99 		-3.35 		-28.637
v -52.175 		-3.35 		1.641
v -51.913 		-3.35 		-3.7
v -51.128 		-3.35 		-8.991
v -49.828 		-3.35 		-14.179
v -48.026 		-3.35 		-19.215
v -26.2531 		-1.61 		-32.9075
v -26.2358 		-2.181 		-32.9201
v -26.2261 		-2.763 		-32.9273
v -27.5463 		-2.8578 		-31.8178
v -27.5459 		-2.763 		-31.8181
v -27.5383 		-2.2749 		-31.8249
v -27.5235 		-1.7021 		-31.8381
v -27.521 		-1.61 		-31.8403
v -10.822 		-1.055 		-50.313
v -10.787 		-0.523 		-50.322
v -7.2306 		0.455 		-41.8403
v -7.1891 		0.0623 		-41.8505
v -7.1808 		-0.018 		-41.8526
v -7.1458 		-0.4372 		-41.8612
v -7.1098 		-0.9647 		-41.8701
v -7.1037 		-1.055 		-41.8716
v -8.626 		-0.6133 		-41.4958
v -8.5841 		-0.1037 		-41.5062
v -8.577 		-0.018 		-41.5079
v -8.528 		0.455 		-41.52
v -27.5368 		-2.181 		-31.8262
v -7.1387 		-0.523 		-41.863
v -26.3823 		0.455 		-32.8131
v -26.3409 		-0.018 		-32.8433
v -26.3053 		-0.523 		-32.8693
v -26.276 		-1.055 		-32.8907
v -27.4999 		-1.055 		-31.8592
v -27.4773 		-0.6088 		-31.8794
v -27.4729 		-0.523 		-31.8834
v -27.4402 		-0.018 		-31.9126
v -27.4026 		0.455 		-31.9462
v -10.695 		0.455 		-50.345
v -10.744 		-0.018 		-50.333
v -27.2617 		1.638 		-32.0722
v -27.3668 		0.8215 		-31.9783
v -27.3599 		0.892 		-31.9843
v -27.3205 		1.2233 		-32.0196
v -27.3129 		1.287 		-32.0264
v -9.348 		-0.018 		-50.678
v -9.398 		0.455 		-50.666
v -9.271 		-1.055 		-50.697
v -9.223 		-2.181 		-50.709
v -9.243 		-1.61 		-50.704
v -9.211 		-2.763 		-50.712
v -9.306 		-0.523 		-50.689
v -26.5344 		1.638 		-32.7018
v -26.4787 		1.287 		-32.7425
v -26.4282 		0.892 		-32.7795
v -10.513 		1.638 		-50.39
v -10.579 		1.287 		-50.374
v -10.64 		0.892 		-50.358
v -9.514 		1.287 		-50.637
v -9.58 		1.638 		-50.621
v -9.453 		0.892 		-50.652
v -33.223 		-1.61 		-38.302
v -33.248 		-2.763 		-38.28
v -33.239 		-2.181 		-38.288
v -33.175 		-0.523 		-38.345
v -33.202 		-1.055 		-38.321
# 1071 vertices

g group_0_16768282

usemtl color_16768282
s 0

f 12 	19 	11
f 13 	19 	12
f 10 	11 	19
f 19 	23 	24
f 25 	19 	24
f 27 	20 	26
f 2 	3 	21
f 21 	616 	29
f 47 	2 	21
f 33 	34 	8
f 45 	47 	113
f 12 	11 	37
f 40 	39 	623
f 115 	116 	82
f 42 	43 	111
f 42 	232 	41
f 11 	10 	26
f 43 	44 	45
f 45 	44 	46
f 45 	46 	47
f 47 	46 	48
f 47 	48 	2
f 2 	48 	49
f 2 	49 	3
f 3 	49 	50
f 3 	50 	6
f 63 	89 	648
f 4 	6 	50
f 54 	55 	60
f 59 	60 	56
f 55 	56 	60
f 57 	59 	56
f 58 	59 	57
f 60 	61 	54
f 53 	54 	61
f 52 	53 	61
f 52 	61 	62
f 111 	43 	113
f 29 	114 	82
f 63 	648 	64
f 4 	64 	648
f 113 	47 	78
f 71 	72 	113
f 74 	75 	113
f 75 	71 	113
f 74 	113 	78
f 87 	113 	86
f 66 	649 	89
f 649 	648 	89
f 88 	86 	113
f 88 	113 	91
f 92 	91 	113
f 100 	92 	113
f 72 	100 	113
f 114 	115 	82
f 108 	107 	112
f 112 	126 	108
f 90 	84 	129
f 664 	22 	691
f 67 	650 	66
f 127 	727 	108
f 727 	726 	108
f 232 	42 	111
f 90 	129 	87
f 113 	87 	129
f 117 	129 	116
f 129 	82 	116
f 144 	97 	103
f 102 	103 	97
f 101 	102 	98
f 98 	58 	101
f 57 	101 	58
f 103 	104 	144
f 96 	144 	104
f 95 	96 	104
f 104 	105 	95
f 94 	95 	105
f 105 	106 	94
f 121 	434 	120
f 121 	122 	136
f 123 	136 	122
f 118 	120 	435
f 85 	436 	73
f 125 	131 	124
f 119 	128 	117
f 124 	132 	119
f 128 	119 	132
f 129 	117 	128
f 127 	108 	126
f 84 	82 	129
f 110 	566 	39
f 139 	140 	199
f 140 	141 	199
f 138 	139 	617
f 198 	199 	141
f 141 	142 	198
f 107 	99 	112
f 39 	152 	99
f 197 	198 	142
f 97 	98 	102
f 143 	197 	142
f 145 	150 	143
f 730 	729 	207
f 617 	620 	138
f 199 	200 	139
f 152 	112 	99
f 152 	39 	566
f 197 	143 	150
f 561 	565 	110
f 148 	149 	145
f 149 	148 	151
f 473 	155 	148
f 150 	145 	149
f 24 	34 	25
f 151 	148 	158
f 155 	157 	148
f 158 	211 	151
f 211 	158 	210
f 160 	159 	666
f 281 	103 	102
f 162 	163 	182
f 163 	164 	182
f 182 	179 	162
f 177 	182 	164
f 29 	177 	164
f 164 	165 	29
f 21 	29 	165
f 34 	24 	768
f 22 	767 	23
f 216 	209 	221
f 666 	157 	169
f 169 	205 	666
f 172 	666 	171
f 170 	171 	666
f 168 	169 	157
f 666 	173 	174
f 175 	666 	174
f 176 	666 	175
f 178 	157 	176
f 180 	93 	162
f 161 	162 	93
f 93 	94 	106
f 106 	161 	93
f 179 	180 	162
f 33 	25 	34
f 155 	473 	225
f 23 	768 	24
f 219 	184 	185
f 219 	185 	181
f 183 	184 	219
f 13 	12 	28
f 37 	28 	12
f 26 	37 	11
f 187 	183 	219
f 27 	26 	10
f 188 	219 	181
f 225 	226 	155
f 186 	187 	219
f 193 	190 	219
f 190 	186 	219
f 194 	219 	191
f 194 	193 	219
f 219 	192 	191
f 98 	304 	58
f 200 	630 	139
f 299 	59 	58
f 195 	637 	189
f 152 	189 	636
f 260 	56 	55
f 170 	666 	205
f 53 	261 	54
f 206 	212 	134
f 54 	260 	55
f 630 	618 	139
f 201 	630 	200
f 202 	627 	201
f 158 	192 	210
f 144 	311 	97
f 215 	222 	214
f 133 	134 	212
f 213 	133 	212
f 214 	133 	213
f 219 	221 	209
f 209 	210 	192
f 216 	221 	215
f 192 	219 	209
f 222 	215 	221
f 133 	214 	222
f 188 	166 	226
f 219 	188 	226
f 166 	155 	226
f 157 	158 	148
f 489 	223 	475
f 223 	224 	474
f 224 	225 	473
f 473 	474 	224
f 474 	475 	223
f 207 	591 	730
f 101 	281 	102
f 41 	232 	303
f 305 	303 	232
f 241 	253 	233
f 218 	566 	235
f 234 	272 	393
f 370 	392 	369
f 249 	243 	239
f 566 	246 	245
f 250 	566 	245
f 566 	250 	251
f 273 	136 	393
f 123 	393 	136
f 380 	381 	282
f 374 	372 	123
f 242 	566 	230
f 229 	566 	248
f 566 	239 	243
f 244 	566 	243
f 247 	245 	246
f 252 	566 	242
f 256 	230 	566
f 252 	248 	566
f 229 	239 	566
f 244 	246 	566
f 228 	251 	250
f 254 	566 	251
f 227 	241 	233
f 566 	233 	253
f 255 	566 	253
f 254 	233 	566
f 236 	566 	220
f 240 	566 	236
f 255 	220 	566
f 238 	566 	218
f 240 	235 	566
f 29 	82 	177
f 237 	566 	238
f 217 	566 	237
f 258 	42 	41
f 258 	41 	257
f 152 	566 	217
f 259 	43 	42
f 259 	42 	258
f 44 	43 	259
f 256 	566 	231
f 136 	274 	275
f 299 	300 	59
f 231 	566 	208
f 591 	208 	566
f 49 	52 	50
f 4 	50 	64
f 48 	52 	49
f 62 	65 	52
f 64 	50 	65
f 278 	283 	105
f 279 	278 	104
f 568 	230 	256
f 173 	956 	174
f 573 	574 	14
f 281 	101 	267
f 57 	267 	101
f 83 	173 	666
f 956 	173 	934
f 83 	934 	173
f 263 	264 	157
f 265 	157 	264
f 167 	157 	265
f 262 	263 	157
f 155 	262 	157
f 167 	168 	157
f 268 	157 	178
f 334 	157 	268
f 270 	157 	269
f 271 	157 	270
f 158 	157 	271
f 666 	176 	157
f 48 	46 	52
f 52 	65 	50
f 65 	62 	51
f 44 	259 	418
f 136 	276 	298
f 260 	267 	56
f 258 	417 	259
f 418 	266 	44
f 46 	44 	266
f 267 	57 	56
f 273 	393 	272
f 136 	273 	274
f 260 	54 	261
f 53 	52 	261
f 266 	261 	52
f 136 	275 	276
f 277 	298 	276
f 421 	419 	280
f 156 	578 	582
f 81 	577 	978
f 295 	306 	287
f 289 	288 	306
f 288 	287 	306
f 290 	306 	285
f 286 	306 	292
f 285 	306 	286
f 289 	306 	291
f 284 	306 	282
f 293 	306 	284
f 294 	306 	293
f 292 	306 	294
f 106 	105 	283
f 291 	306 	290
f 105 	104 	278
f 281 	279 	103
f 279 	104 	103
f 380 	282 	382
f 382 	282 	306
f 306 	295 	298
f 298 	277 	306
f 302 	303 	305
f 306 	277 	305
f 280 	62 	61
f 302 	305 	277
f 301 	280 	61
f 195 	237 	238
f 301 	61 	60
f 300 	301 	60
f 256 	231 	568
f 60 	59 	300
f 299 	58 	304
f 231 	555 	568
f 313 	386 	317
f 577 	81 	582
f 98 	97 	304
f 309 	308 	386
f 308 	310 	386
f 310 	307 	386
f 307 	364 	386
f 311 	304 	97
f 316 	312 	386
f 312 	309 	386
f 316 	386 	315
f 315 	386 	314
f 311 	96 	297
f 314 	386 	313
f 95 	297 	96
f 96 	311 	144
f 296 	297 	94
f 95 	94 	297
f 180 	731 	93
f 317 	386 	319
f 93 	296 	94
f 319 	386 	318
f 385 	386 	364
f 573 	14 	15
f 227 	7 	241
f 324 	391 	338
f 269 	157 	334
f 242 	668 	252
f 972 	263 	968
f 360 	362 	337
f 360 	337 	368
f 367 	337 	391
f 758 	248 	252
f 271 	989 	158
f 990 	271 	270
f 358 	354 	341
f 189 	152 	217
f 195 	217 	237
f 364 	307 	363
f 363 	307 	362
f 337 	362 	307
f 375 	385 	364
f 338 	391 	337
f 368 	337 	367
f 371 	391 	370
f 674 	979 	675
f 393 	123 	373
f 393 	373 	369
f 366 	391 	371
f 372 	373 	123
f 673 	964 	674
f 391 	392 	370
f 383 	384 	377
f 378 	383 	377
f 663 	657 	235
f 381 	374 	123
f 379 	382 	378
f 382 	383 	378
f 123 	282 	381
f 379 	380 	382
f 260 	340 	339
f 261 	340 	260
f 376 	377 	384
f 384 	385 	376
f 375 	376 	385
f 387 	452 	318
f 387 	318 	386
f 137 	138 	620
f 607 	604 	135
f 155 	166 	262
f 330 	329 	418
f 620 	612 	137
f 327 	418 	328
f 389 	135 	604
f 393 	389 	604
f 332 	418 	329
f 418 	332 	328
f 326 	418 	327
f 229 	766 	239
f 393 	369 	392
f 335 	418 	326
f 418 	335 	325
f 395 	406 	394
f 361 	418 	321
f 350 	418 	320
f 345 	333 	418
f 400 	324 	399
f 394 	407 	402
f 323 	321 	418
f 322 	418 	333
f 398 	399 	324
f 324 	318 	397
f 398 	324 	397
f 322 	323 	418
f 325 	345 	418
f 401 	391 	400
f 402 	390 	401
f 391 	324 	400
f 366 	367 	391
f 347 	346 	344
f 347 	344 	343
f 38 	233 	254
f 348 	342 	341
f 404 	439 	403
f 8 	253 	241
f 405 	439 	404
f 349 	320 	418
f 406 	395 	405
f 355 	353 	352
f 351 	418 	350
f 396 	405 	395
f 418 	361 	359
f 343 	359 	361
f 343 	361 	347
f 407 	394 	406
f 409 	402 	407
f 391 	401 	390
f 354 	358 	410
f 410 	352 	354
f 354 	418 	359
f 354 	359 	348
f 348 	341 	354
f 357 	418 	352
f 352 	410 	358
f 352 	358 	355
f 542 	403 	439
f 418 	354 	352
f 336 	325 	335
f 541 	542 	458
f 349 	418 	365
f 356 	418 	351
f 357 	365 	418
f 418 	356 	339
f 418 	339 	340
f 266 	418 	340
f 411 	971 	970
f 280 	331 	562
f 980 	673 	679
f 413 	455 	414
f 331 	330 	418
f 418 	562 	331
f 52 	46 	266
f 418 	259 	417
f 51 	62 	419
f 414 	455 	420
f 416 	455 	413
f 412 	455 	416
f 411 	455 	412
f 420 	455 	415
f 693 	977 	420
f 422 	455 	423
f 698 	575 	985
f 424 	455 	411
f 425 	455 	424
f 423 	455 	425
f 426 	455 	422
f 17 	976 	414
f 239 	28 	249
f 282 	123 	122
f 77 	14 	574
f 15 	985 	575
f 20 	31 	244
f 434 	435 	120
f 36 	9 	250
f 85 	118 	436
f 435 	436 	118
f 15 	575 	573
f 574 	576 	77
f 434 	121 	437
f 437 	121 	136
f 440 	444 	433
f 80 	991 	556
f 576 	438 	76
f 251 	35 	254
f 189 	217 	195
f 971 	411 	412
f 657 	196 	218
f 439 	405 	441
f 390 	402 	409
f 441 	405 	440
f 555 	231 	208
f 454 	433 	446
f 445 	433 	444
f 442 	405 	396
f 445 	446 	433
f 440 	405 	442
f 359 	71 	348
f 447 	454 	446
f 450 	388 	449
f 266 	340 	261
f 452 	387 	451
f 397 	318 	452
f 388 	451 	387
f 443 	440 	442
f 444 	440 	443
f 342 	75 	341
f 426 	433 	454
f 455 	426 	454
f 454 	447 	448
f 449 	453 	448
f 451 	388 	450
f 388 	453 	449
f 454 	448 	453
f 932 	146 	147
f 415 	456 	439
f 457 	439 	456
f 455 	456 	415
f 586 	587 	538
f 153 	932 	147
f 353 	694 	352
f 462 	505 	460
f 463 	504 	462
f 465 	503 	463
f 466 	467 	502
f 344 	72 	343
f 501 	502 	467
f 468 	501 	467
f 470 	500 	468
f 358 	74 	355
f 476 	489 	475
f 169 	776 	205
f 478 	496 	477
f 477 	497 	476
f 505 	490 	460
f 488 	460 	490
f 486 	488 	490
f 175 	957 	176
f 174 	956 	175
f 494 	495 	480
f 481 	483 	494
f 483 	484 	493
f 485 	486 	491
f 490 	491 	486
f 492 	493 	484
f 484 	485 	492
f 491 	492 	485
f 493 	494 	483
f 480 	481 	494
f 478 	480 	495
f 495 	496 	478
f 496 	497 	477
f 489 	476 	497
f 501 	468 	500
f 466 	502 	465
f 503 	465 	502
f 504 	463 	503
f 505 	462 	504
f 506 	510 	470
f 500 	470 	510
f 506 	512 	510
f 516 	510 	512
f 512 	513 	516
f 514 	518 	513
f 545 	546 	519
f 515 	519 	546
f 516 	513 	518
f 154 	933 	153
f 515 	546 	514
f 543 	544 	522
f 523 	543 	522
f 544 	545 	521
f 519 	521 	545
f 527 	551 	523
f 528 	551 	527
f 538 	539 	586
f 972 	973 	264
f 531 	549 	530
f 532 	548 	531
f 530 	550 	528
f 754 	325 	336
f 552 	586 	539
f 539 	540 	552
f 968 	262 	166
f 439 	457 	542
f 521 	522 	544
f 518 	514 	546
f 459 	552 	540
f 540 	541 	459
f 458 	459 	541
f 457 	458 	542
f 534 	547 	532
f 985 	16 	698
f 208 	207 	555
f 76 	77 	576
f 408 	79 	556
f 267 	356 	351
f 341 	75 	358
f 556 	438 	787
f 228 	9 	251
f 995 	983 	469
f 7 	227 	32
f 263 	972 	264
f 361 	92 	347
f 269 	990 	270
f 334 	992 	269
f 339 	356 	260
f 267 	260 	356
f 300 	329 	330
f 262 	968 	263
f 230 	580 	242
f 280 	562 	421
f 960 	268 	178
f 562 	563 	558
f 563 	564 	559
f 560 	559 	564
f 246 	244 	31
f 564 	565 	560
f 561 	560 	565
f 559 	558 	563
f 558 	557 	562
f 990 	269 	992
f 566 	110 	565
f 992 	334 	268
f 38 	254 	35
f 758 	252 	668
f 238 	196 	195
f 668 	242 	580
f 580 	230 	568
f 672 	670 	555
f 669 	580 	670
f 425 	424 	969
f 90 	87 	345
f 238 	218 	196
f 330 	331 	300
f 301 	300 	331
f 280 	301 	331
f 975 	413 	976
f 278 	279 	320
f 350 	320 	279
f 351 	350 	281
f 279 	281 	350
f 283 	278 	349
f 416 	975 	984
f 351 	281 	267
f 218 	235 	657
f 357 	352 	694
f 8 	241 	7
f 250 	245 	36
f 323 	322 	88
f 20 	244 	243
f 311 	327 	328
f 17 	414 	420
f 766 	229 	764
f 698 	806 	575
f 329 	299 	332
f 800 	573 	801
f 86 	322 	333
f 573 	799 	574
f 88 	91 	323
f 90 	345 	325
f 26 	243 	37
f 346 	100 	344
f 91 	92 	321
f 233 	38 	32
f 347 	92 	346
f 348 	71 	342
f 353 	355 	74
f 663 	235 	240
f 694 	699 	357
f 978 	675 	979
f 978 	577 	675
f 86 	88 	322
f 965 	980 	679
f 781 	578 	581
f 299 	329 	300
f 30 	18 	247
f 579 	581 	578
f 332 	304 	328
f 233 	32 	227
f 220 	255 	767
f 767 	664 	220
f 780 	582 	578
f 321 	323 	91
f 582 	779 	577
f 75 	342 	71
f 550 	530 	549
f 551 	528 	550
f 549 	531 	548
f 543 	523 	551
f 548 	532 	547
f 537 	538 	587
f 587 	588 	537
f 535 	537 	588
f 588 	547 	535
f 534 	535 	547
f 590 	591 	134
f 590 	134 	133
f 122 	1061 	282
f 320 	349 	278
f 74 	358 	75
f 365 	357 	699
f 349 	365 	283
f 365 	699 	283
f 343 	72 	359
f 71 	359 	72
f 621 	972 	595
f 130 	134 	566
f 566 	134 	591
f 297 	327 	311
f 566 	565 	131
f 566 	131 	130
f 565 	564 	132
f 565 	132 	131
f 132 	563 	128
f 564 	563 	132
f 563 	562 	129
f 563 	129 	128
f 113 	562 	418
f 136 	298 	437
f 113 	129 	562
f 418 	417 	111
f 418 	111 	113
f 417 	748 	111
f 326 	327 	297
f 304 	332 	299
f 4 	605 	6
f 605 	4 	5
f 605 	5 	607
f 311 	328 	304
f 607 	5 	1
f 607 	1 	604
f 51 	609 	65
f 609 	51 	419
f 609 	419 	114
f 620 	89 	612
f 63 	612 	89
f 1063 	85 	73
f 64 	615 	612
f 64 	612 	63
f 615 	64 	65
f 615 	65 	616
f 616 	65 	609
f 67 	66 	617
f 67 	617 	618
f 617 	66 	89
f 617 	89 	620
f 40 	633 	39
f 110 	39 	633
f 39 	99 	623
f 623 	99 	107
f 623 	107 	625
f 626 	272 	234
f 625 	107 	108
f 625 	108 	627
f 628 	273 	272
f 628 	272 	626
f 627 	108 	109
f 627 	109 	630
f 631 	274 	273
f 631 	273 	628
f 630 	109 	67
f 630 	67 	618
f 274 	631 	632
f 274 	632 	275
f 561 	110 	633
f 561 	633 	125
f 634 	276 	275
f 634 	275 	632
f 635 	277 	276
f 635 	276 	634
f 277 	635 	302
f 773 	302 	635
f 638 	126 	637
f 636 	637 	126
f 986 	1004 	1003
f 639 	599 	765
f 326 	297 	296
f 1067 	1069 	428
f 335 	326 	296
f 335 	731 	336
f 694 	164 	163
f 694 	163 	162
f 283 	161 	106
f 427 	1069 	479
f 557 	421 	562
f 62 	280 	419
f 208 	591 	207
f 736 	735 	590
f 741 	737 	590
f 649 	66 	650
f 651 	724 	652
f 652 	723 	653
f 653 	722 	654
f 654 	660 	655
f 589 	191 	601
f 656 	655 	667
f 723 	652 	724
f 650 	724 	651
f 1 	5 	647
f 165 	700 	21
f 661 	662 	655
f 690 	691 	126
f 659 	690 	126
f 160 	655 	662
f 667 	655 	666
f 664 	691 	665
f 833 	525 	526
f 529 	759 	526
f 659 	663 	690
f 665 	690 	663
f 666 	655 	160
f 663 	659 	657
f 732 	721 	733
f 658 	657 	659
f 657 	658 	196
f 664 	665 	236
f 667 	567 	744
f 934 	932 	571
f 597 	743 	598
f 596 	743 	597
f 31 	30 	246
f 601 	743 	589
f 228 	250 	9
f 592 	603 	606
f 592 	606 	593
f 569 	932 	570
f 571 	572 	934
f 624 	743 	596
f 629 	743 	624
f 639 	743 	599
f 621 	743 	622
f 629 	622 	743
f 619 	743 	595
f 670 	126 	669
f 19 	687 	126
f 670 	672 	126
f 126 	671 	127
f 614 	743 	594
f 619 	594 	743
f 613 	743 	614
f 112 	636 	126
f 638 	658 	126
f 610 	606 	743
f 611 	743 	613
f 603 	743 	606
f 608 	743 	603
f 127 	671 	207
f 671 	126 	672
f 743 	608 	589
f 602 	743 	601
f 665 	663 	240
f 672 	555 	207
f 743 	602 	600
f 743 	600 	585
f 743 	585 	584
f 583 	743 	584
f 671 	672 	207
f 185 	184 	594
f 179 	731 	180
f 182 	754 	179
f 619 	595 	181
f 622 	973 	621
f 718 	966 	719
f 668 	689 	688
f 181 	185 	619
f 594 	619 	185
f 236 	220 	664
f 78 	21 	700
f 240 	236 	665
f 700 	165 	164
f 778 	795 	577
f 568 	555 	670
f 795 	794 	675
f 568 	670 	580
f 689 	668 	580
f 957 	583 	584
f 794 	793 	674
f 638 	196 	658
f 637 	195 	638
f 196 	638 	195
f 636 	189 	637
f 152 	636 	112
f 772 	597 	750
f 598 	750 	597
f 765 	750 	598
f 13 	697 	19
f 19 	685 	686
f 19 	686 	687
f 688 	126 	687
f 689 	126 	688
f 669 	126 	689
f 771 	596 	772
f 658 	659 	126
f 691 	22 	126
f 19 	126 	23
f 22 	23 	126
f 669 	689 	580
f 687 	758 	688
f 344 	100 	72
f 414 	976 	413
f 685 	19 	697
f 693 	420 	415
f 16 	977 	709
f 694 	353 	700
f 353 	74 	700
f 78 	700 	74
f 984 	412 	416
f 413 	975 	416
f 700 	164 	694
f 699 	694 	162
f 161 	699 	162
f 16 	709 	698
f 690 	665 	691
f 610 	186 	606
f 308 	309 	508
f 801 	575 	806
f 424 	411 	970
f 994 	509 	524
f 719 	965 	679
f 422 	717 	426
f 970 	969 	424
f 598 	639 	765
f 553 	751 	533
f 752 	533 	751
f 791 	814 	679
f 553 	554 	751
f 595 	972 	968
f 608 	194 	589
f 572 	583 	956
f 957 	956 	583
f 426 	717 	433
f 765 	599 	720
f 720 	599 	567
f 427 	428 	1069
f 245 	247 	18
f 247 	246 	30
f 461 	314 	432
f 556 	787 	790
f 995 	469 	471
f 428 	498 	1067
f 611 	187 	610
f 798 	574 	799
f 595 	968 	181
f 511 	988 	524
f 639 	598 	743
f 621 	595 	743
f 611 	610 	743
f 572 	743 	583
f 571 	743 	572
f 569 	743 	571
f 570 	743 	569
f 833 	526 	759
f 567 	599 	743
f 529 	533 	752
f 721 	743 	570
f 660 	661 	655
f 723 	722 	653
f 722 	660 	654
f 728 	127 	729
f 127 	207 	729
f 699 	161 	283
f 127 	728 	727
f 725 	650 	109
f 67 	109 	650
f 724 	650 	725
f 648 	647 	5
f 109 	108 	726
f 726 	725 	109
f 296 	93 	731
f 739 	743 	721
f 734 	160 	662
f 591 	590 	735
f 754 	182 	740
f 1070 	1071 	482
f 740 	177 	82
f 736 	590 	737
f 730 	591 	735
f 325 	740 	90
f 84 	90 	740
f 739 	721 	732
f 733 	160 	734
f 160 	733 	721
f 741 	742 	738
f 738 	737 	741
f 739 	738 	742
f 743 	739 	742
f 744 	745 	667
f 743 	744 	567
f 746 	850 	745
f 747 	851 	746
f 86 	333 	87
f 333 	345 	87
f 850 	656 	667
f 841 	852 	747
f 667 	745 	850
f 593 	190 	592
f 310 	520 	509
f 603 	193 	608
f 417 	258 	748
f 257 	748 	258
f 184 	183 	614
f 525 	959 	536
f 961 	511 	536
f 776 	624 	771
f 749 	939 	626
f 776 	629 	624
f 626 	938 	628
f 335 	296 	731
f 754 	336 	731
f 554 	756 	751
f 740 	325 	754
f 756 	554 	757
f 759 	529 	752
f 753 	755 	938
f 361 	321 	92
f 100 	346 	92
f 179 	754 	731
f 177 	740 	182
f 430 	431 	936
f 938 	755 	628
f 82 	84 	740
f 668 	688 	758
f 421 	115 	114
f 421 	114 	419
f 557 	116 	115
f 557 	115 	421
f 116 	557 	558
f 116 	558 	117
f 559 	119 	117
f 559 	117 	558
f 632 	631 	755
f 631 	628 	755
f 634 	632 	755
f 560 	124 	119
f 560 	119 	559
f 124 	560 	561
f 124 	561 	125
f 489 	747 	223
f 747 	489 	841
f 525 	833 	959
f 746 	224 	223
f 746 	223 	747
f 745 	225 	224
f 745 	224 	746
f 641 	753 	923
f 923 	922 	641
f 744 	226 	225
f 744 	225 	745
f 743 	219 	226
f 743 	226 	744
f 35 	251 	9
f 742 	221 	219
f 742 	219 	743
f 741 	222 	221
f 741 	221 	742
f 133 	222 	741
f 133 	741 	590
f 961 	536 	959
f 648 	137 	135
f 648 	135 	647
f 649 	138 	137
f 649 	137 	648
f 28 	239 	766
f 650 	139 	138
f 650 	138 	649
f 651 	140 	139
f 651 	139 	650
f 652 	141 	140
f 652 	140 	651
f 26 	20 	243
f 653 	142 	141
f 653 	141 	652
f 507 	508 	309
f 654 	143 	142
f 654 	142 	653
f 677 	925 	643
f 655 	145 	143
f 655 	143 	654
f 656 	148 	145
f 656 	145 	655
f 148 	656 	850
f 308 	508 	520
f 661 	660 	150
f 661 	150 	149
f 517 	507 	312
f 150 	660 	722
f 150 	722 	197
f 151 	662 	661
f 151 	661 	149
f 681 	925 	677
f 676 	925 	680
f 642 	925 	676
f 172 	760 	666
f 760 	761 	666
f 761 	762 	666
f 666 	762 	763
f 666 	763 	667
f 472 	319 	471
f 153 	666 	154
f 159 	154 	666
f 146 	666 	147
f 153 	147 	666
f 83 	666 	146
f 317 	499 	313
f 567 	667 	720
f 763 	720 	667
f 684 	644 	925
f 472 	499 	317
f 471 	1000 	995
f 695 	925 	678
f 645 	684 	925
f 644 	678 	925
f 253 	8 	34
f 683 	925 	642
f 245 	18 	36
f 696 	925 	646
f 37 	249 	28
f 925 	804 	702
f 764 	248 	758
f 249 	37 	243
f 716 	713 	804
f 713 	712 	804
f 255 	253 	768
f 34 	768 	253
f 936 	937 	430
f 255 	768 	767
f 712 	711 	804
f 711 	710 	804
f 764 	758 	686
f 703 	702 	804
f 708 	925 	702
f 701 	925 	708
f 706 	925 	701
f 707 	925 	706
f 705 	925 	707
f 704 	925 	705
f 710 	703 	804
f 687 	686 	758
f 704 	646 	925
f 696 	692 	925
f 692 	645 	925
f 714 	715 	804
f 695 	643 	925
f 682 	925 	683
f 765 	720 	762
f 764 	686 	685
f 715 	716 	804
f 720 	763 	762
f 248 	764 	229
f 761 	760 	750
f 766 	764 	685
f 697 	766 	685
f 28 	766 	13
f 681 	680 	925
f 765 	761 	750
f 697 	13 	766
f 762 	761 	765
f 925 	682 	641
f 768 	23 	767
f 22 	664 	767
f 190 	593 	186
f 804 	773 	769
f 972 	621 	973
f 755 	770 	634
f 770 	769 	773
f 597 	772 	596
f 782 	781 	581
f 973 	622 	775
f 783 	782 	581
f 780 	578 	781
f 577 	779 	778
f 772 	750 	172
f 760 	172 	750
f 792 	802 	673
f 679 	802 	791
f 172 	171 	772
f 771 	772 	171
f 171 	170 	771
f 624 	596 	771
f 775 	629 	776
f 776 	771 	170
f 205 	776 	170
f 439 	693 	415
f 168 	775 	169
f 709 	810 	698
f 776 	169 	775
f 693 	807 	709
f 812 	811 	718
f 813 	812 	718
f 719 	679 	814
f 814 	813 	719
f 778 	779 	777
f 779 	789 	777
f 777 	780 	781
f 777 	781 	782
f 777 	782 	783
f 777 	784 	785
f 777 	785 	786
f 786 	790 	777
f 788 	777 	787
f 780 	777 	789
f 789 	582 	780
f 789 	779 	582
f 438 	788 	787
f 787 	777 	790
f 785 	408 	786
f 786 	408 	556
f 790 	786 	556
f 794 	777 	793
f 792 	793 	777
f 795 	777 	794
f 778 	777 	795
f 802 	792 	441
f 777 	788 	796
f 796 	803 	777
f 777 	797 	798
f 801 	806 	441
f 777 	798 	799
f 675 	577 	795
f 674 	675 	794
f 673 	674 	793
f 793 	792 	673
f 777 	441 	792
f 679 	673 	802
f 575 	801 	573
f 800 	799 	573
f 797 	574 	798
f 797 	777 	803
f 574 	797 	576
f 803 	576 	797
f 788 	438 	796
f 576 	796 	438
f 803 	796 	576
f 635 	770 	773
f 773 	805 	774
f 257 	774 	748
f 718 	719 	813
f 634 	770 	635
f 808 	807 	693
f 709 	807 	810
f 805 	773 	804
f 769 	714 	804
f 748 	774 	805
f 810 	441 	806
f 800 	801 	441
f 799 	800 	441
f 807 	808 	441
f 808 	439 	441
f 808 	693 	439
f 441 	810 	807
f 806 	698 	810
f 646 	285 	696
f 479 	809 	926
f 812 	813 	441
f 814 	791 	441
f 813 	814 	441
f 791 	802 	441
f 811 	812 	441
f 440 	811 	441
f 429 	926 	430
f 431 	430 	926
f 777 	799 	441
f 499 	926 	432
f 461 	432 	926
f 471 	926 	472
f 469 	926 	471
f 469 	431 	926
f 717 	718 	811
f 482 	926 	429
f 499 	472 	926
f 524 	926 	511
f 440 	433 	811
f 526 	926 	529
f 525 	926 	526
f 717 	811 	433
f 815 	816 	443
f 815 	443 	442
f 520 	926 	509
f 524 	509 	926
f 443 	816 	817
f 443 	817 	444
f 818 	445 	444
f 818 	444 	817
f 507 	926 	508
f 517 	926 	507
f 487 	926 	517
f 487 	464 	926
f 818 	446 	445
f 396 	815 	442
f 464 	461 	926
f 819 	446 	818
f 431 	983 	936
f 446 	819 	820
f 446 	820 	447
f 821 	448 	447
f 821 	447 	820
f 822 	449 	448
f 822 	448 	821
f 313 	432 	314
f 823 	450 	449
f 823 	449 	822
f 824 	451 	450
f 824 	450 	823
f 451 	824 	825
f 451 	825 	452
f 464 	315 	461
f 314 	461 	315
f 826 	827 	501
f 826 	501 	500
f 827 	828 	502
f 827 	502 	501
f 828 	829 	503
f 828 	503 	502
f 829 	830 	504
f 829 	504 	503
f 830 	831 	505
f 830 	505 	504
f 505 	832 	490
f 831 	832 	505
f 832 	834 	491
f 832 	491 	490
f 834 	835 	492
f 834 	492 	491
f 835 	836 	493
f 835 	493 	492
f 836 	837 	494
f 836 	494 	493
f 837 	838 	495
f 837 	495 	494
f 838 	839 	496
f 838 	496 	495
f 839 	840 	497
f 839 	497 	496
f 840 	841 	489
f 840 	489 	497
f 464 	487 	315
f 460 	862 	842
f 294 	684 	645
f 460 	842 	843
f 460 	843 	462
f 498 	926 	482
f 462 	843 	844
f 462 	844 	463
f 428 	926 	498
f 427 	926 	428
f 479 	926 	427
f 463 	844 	845
f 463 	845 	465
f 465 	845 	846
f 465 	846 	466
f 466 	846 	847
f 466 	847 	467
f 467 	847 	848
f 467 	848 	468
f 468 	848 	849
f 468 	849 	470
f 533 	529 	926
f 536 	926 	525
f 553 	533 	926
f 536 	511 	926
f 520 	508 	926
f 554 	553 	926
f 148 	850 	473
f 473 	850 	851
f 473 	851 	474
f 474 	851 	852
f 474 	852 	475
f 475 	852 	853
f 475 	853 	476
f 476 	853 	854
f 476 	854 	477
f 477 	854 	855
f 477 	855 	478
f 646 	704 	285
f 478 	855 	856
f 478 	856 	480
f 480 	856 	857
f 480 	857 	481
f 481 	857 	858
f 481 	858 	483
f 927 	885 	926
f 483 	858 	859
f 483 	859 	484
f 484 	859 	860
f 484 	860 	485
f 485 	860 	861
f 485 	861 	486
f 486 	861 	862
f 486 	862 	488
f 488 	862 	460
f 865 	826 	500
f 865 	500 	510
f 916 	866 	543
f 867 	544 	543
f 867 	543 	866
f 868 	545 	544
f 868 	544 	867
f 869 	546 	545
f 869 	545 	868
f 546 	870 	518
f 870 	546 	869
f 872 	516 	518
f 872 	518 	870
f 865 	510 	516
f 865 	516 	872
f 864 	893 	938
f 890 	938 	893
f 863 	864 	938
f 873 	506 	849
f 470 	849 	506
f 873 	874 	506
f 864 	757 	880
f 506 	874 	512
f 512 	874 	875
f 512 	875 	513
f 286 	696 	285
f 513 	875 	876
f 513 	876 	514
f 514 	876 	877
f 514 	877 	515
f 877 	879 	519
f 877 	519 	515
f 692 	292 	645
f 519 	879 	881
f 519 	881 	521
f 521 	881 	883
f 521 	883 	522
f 522 	883 	884
f 522 	884 	523
f 878 	864 	880
f 886 	527 	884
f 523 	884 	527
f 887 	528 	527
f 887 	527 	886
f 888 	530 	528
f 888 	528 	887
f 1062 	1063 	695
f 882 	880 	757
f 882 	757 	885
f 889 	531 	530
f 889 	530 	888
f 892 	532 	531
f 892 	531 	889
f 878 	893 	864
f 894 	534 	532
f 894 	532 	892
f 895 	535 	534
f 895 	534 	894
f 535 	895 	897
f 535 	897 	537
f 899 	538 	537
f 899 	537 	897
f 901 	539 	538
f 901 	538 	899
f 902 	540 	539
f 902 	539 	901
f 900 	938 	891
f 903 	541 	540
f 903 	540 	902
f 905 	542 	541
f 905 	541 	903
f 640 	641 	682
f 907 	552 	459
f 907 	908 	586
f 907 	586 	552
f 896 	938 	898
f 908 	909 	587
f 908 	587 	586
f 909 	910 	588
f 909 	588 	587
f 910 	911 	547
f 910 	547 	588
f 911 	913 	548
f 911 	548 	547
f 913 	914 	549
f 913 	549 	548
f 914 	915 	550
f 914 	550 	549
f 916 	551 	550
f 916 	550 	915
f 543 	551 	916
f 896 	906 	938
f 904 	753 	906
f 912 	753 	904
f 938 	906 	753
f 286 	692 	696
f 918 	928 	919
f 920 	925 	921
f 921 	925 	922
f 919 	924 	920
f 924 	925 	920
f 683 	987 	682
f 925 	641 	922
f 912 	923 	753
f 1061 	1062 	678
f 885 	927 	917
f 917 	927 	918
f 554 	926 	757
f 757 	926 	885
f 928 	918 	927
f 924 	919 	928
f 926 	809 	930
f 809 	825 	930
f 930 	824 	929
f 940 	1 	931
f 931 	1 	647
f 939 	749 	940
f 5 	4 	648
f 291 	290 	705
f 309 	312 	507
f 520 	310 	308
f 1000 	471 	319
f 432 	313 	499
f 472 	317 	319
f 168 	167 	775
f 291 	705 	707
f 265 	973 	167
f 933 	570 	932
f 572 	956 	934
f 957 	584 	958
f 960 	958 	585
f 584 	585 	958
f 715 	714 	1054
f 191 	589 	194
f 585 	600 	960
f 1055 	716 	1054
f 429 	430 	937
f 989 	601 	191
f 938 	626 	939
f 1 	940 	749
f 989 	990 	601
f 602 	601 	990
f 937 	1070 	429
f 194 	608 	193
f 986 	987 	642
f 990 	992 	602
f 569 	571 	932
f 946 	945 	871
f 938 	935 	948
f 947 	946 	871
f 825 	809 	944
f 945 	944 	871
f 932 	934 	146
f 934 	83 	146
f 935 	955 	949
f 949 	948 	935
f 948 	947 	938
f 871 	863 	938
f 947 	871 	938
f 890 	891 	938
f 900 	898 	938
f 932 	153 	933
f 950 	943 	951
f 159 	933 	154
f 933 	721 	570
f 160 	721 	159
f 933 	159 	721
f 942 	941 	953
f 954 	953 	941
f 1021 	986 	676
f 642 	676 	986
f 941 	949 	954
f 955 	954 	949
f 511 	961 	988
f 193 	603 	190
f 942 	952 	943
f 943 	950 	815
f 951 	943 	952
f 953 	952 	942
f 592 	190 	603
f 676 	680 	1021
f 695 	678 	1062
f 431 	469 	983
f 176 	958 	178
f 960 	178 	958
f 287 	288 	701
f 176 	957 	958
f 957 	175 	956
f 701 	708 	287
f 186 	610 	187
f 966 	1012 	965
f 613 	614 	183
f 614 	594 	184
f 289 	707 	706
f 974 	1012 	971
f 970 	971 	1012
f 629 	775 	622
f 1036 	1035 	959
f 16 	1012 	977
f 183 	187 	613
f 611 	613 	187
f 775 	167 	973
f 81 	1012 	963
f 980 	1012 	964
f 759 	752 	1038
f 265 	264 	973
f 1053 	712 	713
f 1038 	1037 	759
f 1012 	966 	981
f 959 	833 	1036
f 982 	1012 	967
f 981 	967 	1012
f 1012 	982 	969
f 969 	970 	1012
f 1012 	974 	984
f 975 	1012 	984
f 976 	1012 	975
f 181 	968 	188
f 15 	1012 	985
f 188 	968 	166
f 192 	989 	191
f 683 	642 	987
f 606 	186 	593
f 600 	992 	960
f 17 	1012 	976
f 17 	977 	1012
f 640 	682 	987
f 14 	1012 	15
f 77 	1012 	14
f 994 	524 	988
f 76 	1012 	77
f 991 	1012 	76
f 80 	1012 	991
f 1002 	987 	1003
f 986 	1003 	987
f 1002 	640 	987
f 81 	978 	1012
f 963 	1012 	156
f 600 	602 	992
f 1044 	677 	643
f 192 	158 	989
f 978 	979 	1012
f 979 	964 	1012
f 980 	965 	1012
f 16 	985 	1012
f 1012 	80 	79
f 1012 	79 	962
f 271 	990 	989
f 312 	316 	517
f 960 	992 	268
f 708 	702 	1064
f 703 	1066 	702
f 723 	198 	197
f 723 	197 	722
f 724 	199 	198
f 724 	198 	723
f 724 	200 	199
f 200 	724 	725
f 726 	201 	200
f 726 	200 	725
f 727 	202 	201
f 727 	201 	726
f 728 	203 	202
f 728 	202 	727
f 729 	204 	203
f 729 	203 	728
f 156 	1012 	579
f 204 	729 	730
f 204 	730 	206
f 209 	739 	732
f 209 	732 	733
f 209 	733 	210
f 210 	733 	734
f 210 	734 	211
f 211 	734 	662
f 211 	662 	151
f 1052 	710 	1051
f 206 	730 	212
f 735 	212 	730
f 736 	213 	212
f 736 	212 	735
f 737 	214 	213
f 737 	213 	736
f 214 	737 	738
f 214 	738 	215
f 215 	738 	739
f 215 	739 	216
f 216 	739 	209
f 232 	111 	748
f 1053 	713 	1055
f 232 	748 	305
f 305 	748 	805
f 805 	804 	306
f 805 	306 	305
f 804 	925 	306
f 306 	925 	382
f 1009 	903 	1008
f 925 	924 	383
f 925 	383 	382
f 310 	509 	993
f 310 	993 	307
f 928 	384 	924
f 383 	924 	384
f 928 	927 	385
f 928 	385 	384
f 927 	926 	386
f 927 	386 	385
f 993 	509 	994
f 386 	926 	930
f 386 	930 	387
f 820 	819 	1006
f 487 	316 	315
f 930 	929 	388
f 930 	388 	387
f 579 	1006 	581
f 819 	818 	581
f 234 	604 	1
f 581 	1006 	819
f 41 	303 	257
f 1 	749 	234
f 783 	905 	777
f 1044 	1045 	677
f 644 	284 	678
f 234 	749 	626
f 487 	517 	316
f 907 	1008 	902
f 777 	905 	784
f 1000 	319 	318
f 1005 	999 	1001
f 998 	1005 	1001
f 753 	1001 	999
f 755 	753 	999
f 1001 	1002 	998
f 1002 	1003 	998
f 997 	998 	1003
f 1003 	1004 	997
f 996 	997 	1004
f 817 	816 	783
f 711 	1051 	710
f 999 	770 	755
f 816 	905 	783
f 818 	817 	783
f 783 	581 	818
f 1060 	1059 	988
f 712 	1057 	711
f 710 	1052 	703
f 770 	999 	1005
f 823 	929 	824
f 871 	944 	809
f 824 	930 	825
f 815 	905 	816
f 929 	823 	822
f 821 	1007 	822
f 820 	1006 	821
f 1007 	821 	1006
f 929 	822 	1007
f 1044 	1032 	1045
f 1012 	962 	1011
f 962 	784 	1011
f 1012 	1006 	579
f 1010 	1011 	784
f 784 	905 	1010
f 1010 	905 	1009
f 862 	832 	842
f 832 	831 	842
f 843 	842 	831
f 831 	830 	843
f 844 	843 	830
f 830 	829 	844
f 845 	844 	829
f 829 	828 	845
f 846 	845 	828
f 847 	846 	828
f 986 	70 	1004
f 1013 	1014 	863
f 863 	1014 	1015
f 863 	1015 	864
f 70 	1021 	69
f 851 	747 	852
f 850 	746 	851
f 986 	1021 	70
f 863 	1016 	1017
f 863 	1017 	1018
f 1018 	1033 	863
f 1020 	863 	1019
f 841 	840 	853
f 853 	852 	841
f 839 	838 	855
f 1002 	1001 	640
f 859 	835 	860
f 860 	834 	861
f 680 	1022 	1021
f 832 	862 	861
f 753 	641 	1001
f 640 	1001 	641
f 856 	855 	838
f 838 	837 	856
f 857 	856 	837
f 836 	858 	837
f 832 	861 	834
f 835 	859 	836
f 834 	860 	835
f 858 	836 	859
f 857 	837 	858
f 855 	854 	839
f 840 	839 	854
f 854 	853 	840
f 828 	827 	847
f 849 	848 	826
f 826 	865 	849
f 848 	847 	827
f 873 	849 	865
f 827 	826 	848
f 865 	874 	873
f 1029 	68 	1034
f 69 	1029 	1027
f 1034 	1027 	1029
f 1027 	1028 	69
f 1028 	996 	70
f 1004 	70 	996
f 1026 	1034 	68
f 68 	1030 	1026
f 1025 	1026 	1030
f 1030 	1031 	1025
f 1024 	1025 	1031
f 1031 	1032 	1023
f 1032 	73 	1023
f 436 	1023 	73
f 865 	872 	874
f 875 	874 	872
f 870 	869 	876
f 877 	876 	869
f 872 	870 	875
f 876 	875 	870
f 877 	869 	879
f 1019 	863 	1033
f 881 	867 	883
f 867 	881 	868
f 70 	69 	1028
f 889 	888 	914
f 867 	866 	883
f 1069 	1019 	1033
f 884 	916 	886
f 887 	886 	916
f 1057 	1027 	1034
f 916 	915 	887
f 888 	887 	915
f 915 	914 	888
f 892 	911 	894
f 894 	911 	895
f 902 	1008 	903
f 905 	815 	950
f 903 	1009 	905
f 1034 	1026 	1057
f 879 	868 	881
f 868 	879 	869
f 884 	883 	866
f 916 	884 	866
f 901 	907 	902
f 899 	908 	901
f 897 	909 	899
f 895 	910 	897
f 892 	889 	913
f 914 	913 	889
f 911 	892 	913
f 910 	895 	911
f 907 	901 	908
f 909 	897 	910
f 909 	908 	899
f 234 	393 	604
f 605 	615 	6
f 3 	6 	21
f 114 	29 	609
f 1016 	1068 	1017
f 871 	1016 	863
f 21 	6 	616
f 1064 	1065 	708
f 1068 	1016 	809
f 607 	135 	605
f 605 	135 	615
f 616 	6 	615
f 871 	809 	1016
f 609 	29 	616
f 612 	615 	135
f 1044 	73 	1032
f 1036 	863 	1035
f 1037 	863 	1036
f 338 	1035 	863
f 863 	1037 	1038
f 863 	1038 	1013
f 1031 	1045 	1032
f 863 	1020 	1039
f 863 	1039 	1040
f 863 	1040 	1041
f 1042 	338 	1041
f 863 	1041 	338
f 633 	131 	125
f 1023 	1024 	1031
f 618 	617 	139
f 135 	137 	612
f 1022 	680 	681
f 1022 	1029 	1021
f 69 	1021 	1029
f 19 	627 	10
f 202 	10 	627
f 630 	201 	627
f 1022 	68 	1029
f 202 	203 	10
f 681 	677 	1045
f 203 	204 	10
f 625 	627 	25
f 293 	684 	294
f 19 	25 	627
f 708 	1065 	287
f 704 	705 	290
f 1071 	1040 	1039
f 40 	623 	33
f 707 	289 	291
f 1020 	1067 	1039
f 625 	25 	623
f 284 	644 	293
f 681 	1045 	1022
f 324 	338 	1046
f 1047 	338 	1043
f 1048 	338 	1047
f 1048 	1049 	338
f 1049 	1050 	338
f 1046 	338 	1050
f 1030 	1045 	1031
f 68 	1022 	1030
f 1045 	1030 	1022
f 25 	33 	623
f 715 	1054 	716
f 1056 	1054 	714
f 40 	130 	633
f 132 	124 	131
f 716 	1055 	713
f 1051 	711 	1057
f 769 	1056 	714
f 770 	1005 	1056
f 770 	1056 	769
f 1056 	1005 	1054
f 998 	1054 	1005
f 131 	633 	130
f 997 	1055 	998
f 1054 	998 	1055
f 1043 	936 	1047
f 1055 	996 	1053
f 1042 	1043 	338
f 1028 	1053 	996
f 204 	134 	10
f 997 	996 	1055
f 1053 	1028 	1027
f 1053 	1057 	712
f 204 	206 	134
f 1057 	1053 	1027
f 1025 	1051 	1026
f 1051 	1057 	1026
f 33 	8 	130
f 1023 	1052 	1024
f 1051 	1024 	1052
f 1024 	1051 	1025
f 20 	27 	130
f 1060 	338 	1059
f 1035 	338 	1060
f 1058 	1059 	338
f 337 	1058 	338
f 38 	35 	130
f 32 	38 	130
f 1062 	121 	120
f 31 	20 	130
f 36 	18 	130
f 18 	30 	130
f 1061 	122 	121
f 9 	36 	130
f 30 	31 	130
f 8 	7 	130
f 7 	32 	130
f 35 	9 	130
f 10 	134 	27
f 134 	130 	27
f 130 	40 	33
f 21 	78 	47
f 45 	113 	43
f 864 	1015 	757
f 751 	756 	1014
f 752 	751 	1013
f 643 	1063 	1044
f 1071 	1039 	1067
f 1020 	1019 	1067
f 643 	695 	1063
f 1068 	1018 	1017
f 1069 	1033 	1018
f 1063 	1062 	118
f 282 	1061 	284
f 1061 	678 	284
f 937 	936 	1042
f 1043 	1042 	936
f 1041 	1070 	1042
f 937 	1042 	1070
f 1070 	1041 	1040
f 318 	324 	1000
f 692 	286 	292
f 983 	1049 	1048
f 1048 	1047 	983
f 706 	701 	288
f 289 	706 	288
f 994 	988 	1059
f 307 	993 	337
f 285 	704 	290
f 294 	645 	292
f 961 	1035 	1060
f 644 	684 	293
f 994 	1059 	1058
f 368 	893 	360
f 878 	360 	893
f 880 	362 	360
f 880 	360 	878
f 362 	880 	882
f 362 	882 	363
f 882 	364 	363
f 885 	364 	882
f 891 	890 	367
f 891 	367 	366
f 367 	890 	893
f 367 	893 	368
f 369 	896 	898
f 369 	898 	370
f 370 	898 	900
f 370 	900 	371
f 371 	900 	891
f 371 	891 	366
f 295 	287 	1065
f 372 	904 	906
f 372 	906 	373
f 373 	906 	896
f 373 	896 	369
f 923 	912 	374
f 295 	1065 	298
f 374 	912 	904
f 374 	904 	372
f 364 	885 	375
f 917 	375 	885
f 918 	376 	375
f 918 	375 	917
f 1061 	121 	1062
f 919 	377 	376
f 919 	376 	918
f 377 	919 	920
f 377 	920 	378
f 921 	379 	378
f 921 	378 	920
f 1062 	120 	118
f 922 	380 	379
f 922 	379 	921
f 85 	1063 	118
f 380 	922 	923
f 380 	923 	381
f 381 	923 	374
f 1063 	73 	1044
f 929 	1007 	453
f 929 	453 	388
f 1007 	1006 	454
f 1007 	454 	453
f 1006 	1012 	454
f 454 	1012 	455
f 1012 	1011 	456
f 1012 	456 	455
f 1064 	702 	1066
f 1011 	1010 	457
f 1011 	457 	456
f 1010 	1009 	458
f 1010 	458 	457
f 1009 	1008 	459
f 1009 	459 	458
f 907 	459 	1008
f 647 	135 	389
f 647 	389 	931
f 1052 	1023 	1066
f 436 	1066 	1023
f 393 	931 	389
f 435 	1064 	436
f 938 	391 	390
f 938 	390 	935
f 434 	1064 	435
f 939 	392 	391
f 939 	391 	938
f 940 	393 	392
f 940 	392 	939
f 1064 	434 	1065
f 437 	1065 	434
f 393 	940 	931
f 394 	941 	942
f 394 	942 	395
f 298 	1065 	437
f 395 	942 	943
f 395 	943 	396
f 396 	943 	815
f 703 	1052 	1066
f 944 	397 	452
f 944 	452 	825
f 945 	398 	397
f 945 	397 	944
f 398 	945 	946
f 398 	946 	399
f 1066 	436 	1064
f 399 	946 	947
f 399 	947 	400
f 400 	947 	948
f 400 	948 	401
f 401 	948 	949
f 401 	949 	402
f 774 	303 	302
f 774 	302 	773
f 402 	949 	941
f 402 	941 	394
f 303 	774 	257
f 950 	403 	905
f 951 	404 	403
f 951 	403 	950
f 952 	405 	404
f 952 	404 	951
f 953 	406 	405
f 953 	405 	952
f 954 	407 	406
f 954 	406 	953
f 1068 	479 	1069
f 955 	409 	407
f 955 	407 	954
f 409 	955 	935
f 409 	935 	390
f 479 	1068 	809
f 403 	542 	905
f 756 	757 	1015
f 1015 	1014 	756
f 962 	408 	784
f 1014 	1013 	751
f 785 	784 	408
f 79 	408 	962
f 80 	556 	79
f 1069 	1067 	1019
f 438 	556 	991
f 1068 	1069 	1018
f 991 	76 	438
f 482 	429 	1070
f 498 	482 	1071
f 498 	1071 	1067
f 693 	709 	977
f 752 	1013 	1038
f 833 	759 	1037
f 833 	1037 	1036
f 961 	959 	1035
f 1047 	936 	983
f 717 	981 	718
f 673 	980 	964
f 1071 	1070 	1040
f 1046 	1000 	324
f 963 	156 	582
f 1000 	1046 	995
f 979 	674 	964
f 965 	719 	966
f 967 	981 	422
f 717 	422 	981
f 969 	982 	425
f 423 	425 	982
f 412 	974 	971
f 1049 	983 	995
f 1049 	995 	1050
f 988 	961 	1060
f 993 	994 	1058
f 974 	412 	984
f 423 	982 	967
f 422 	423 	967
f 966 	718 	981
f 1050 	995 	1046
f 963 	582 	81
f 1058 	337 	993
f 579 	578 	156
f 17 	420 	977
# 2186 faces

 #end of obj_0

