# Object Export From Tinkercad Server 2015

mtllib obj.mtl

o obj_0
v -11.3855 		-19.136 		0
v -12.1073 		-19.3168 		0
v -5.9585 		-18.331 		1
v -0.1805 		-6.955 		0
v -0.4795 		-18.062 		1
v -0.3795 		18 		0
v 5.5875 		-2.764 		1
v 5.5875 		-2.764 		0
v -0.1805 		11.239 		0
v -3.7445 		4.016 		0
v -11.7155 		2.858 		1
v 6.9485 		-10.703 		0
v 11.3555 		2.858 		0
v 11.3555 		2.858 		1
v -18.5155 		16.214 		1
v 17.7565 		16.214 		0
v 20 		15.652 		0
v -11.3855 		-19.136 		1
v 4.9995 		-18.331 		1
v -12.1073 		-19.3168 		1
v -20.3604 		15.7518 		1
v -20.3604 		15.7518 		0
v 6.9485 		-10.703 		1
v -0.1805 		11.239 		1
v 3.3845 		4.016 		1
v -0.1805 		-6.955 		1
v 8.7325 		17.552 		1
v 10.4265 		-19.136 		0
v 10.4265 		-19.136 		1
v -7.3095 		-10.703 		0
v -3.7445 		4.016 		1
v 11.7358 		-19.4639 		1
v 11.7358 		-19.4639 		0
v -7.3095 		-10.703 		1
v -0.4795 		-18.062 		0
v 17.7565 		16.214 		1
v -5.9585 		-18.331 		0
v 20 		15.652 		1
v 4.9995 		-18.331 		0
v -0.3795 		18 		1
v -5.9485 		-2.764 		0
v -11.7155 		2.858 		0
v -5.9485 		-2.764 		1
v -9.4915 		17.552 		0
v -18.5155 		16.214 		0
v -9.4915 		17.552 		1
v 3.3845 		4.016 		0
v 8.7325 		17.552 		0
# 48 vertices

g group_0_16089887

usemtl color_16089887
s 0

f 10 	44 	9
f 5 	19 	23
f 13 	14 	47
f 15 	21 	11
f 14 	13 	8
f 14 	8 	7
f 14 	27 	25
f 24 	25 	27
f 8 	13 	12
f 18 	34 	20
f 1 	18 	20
f 1 	20 	2
f 1 	37 	18
f 38 	36 	14
f 3 	18 	37
f 23 	12 	26
f 4 	26 	12
f 32 	23 	29
f 7 	23 	14
f 38 	14 	32
f 19 	28 	29
f 9 	31 	10
f 32 	29 	28
f 32 	28 	33
f 32 	14 	23
f 31 	9 	24
f 35 	5 	3
f 35 	3 	37
f 36 	16 	27
f 4 	12 	35
f 28 	39 	12
f 39 	35 	12
f 12 	13 	33
f 19 	39 	28
f 17 	16 	36
f 17 	36 	38
f 39 	19 	5
f 39 	5 	35
f 28 	12 	33
f 40 	46 	24
f 27 	40 	24
f 22 	42 	2
f 42 	30 	2
f 23 	7 	12
f 8 	12 	7
f 27 	14 	36
f 1 	2 	30
f 37 	1 	30
f 3 	5 	34
f 18 	3 	34
f 26 	34 	5
f 23 	26 	5
f 19 	29 	23
f 42 	41 	30
f 30 	4 	35
f 21 	20 	11
f 32 	33 	17
f 34 	26 	30
f 35 	37 	30
f 43 	11 	34
f 10 	42 	44
f 6 	9 	44
f 11 	20 	34
f 21 	15 	45
f 21 	45 	22
f 45 	44 	42
f 45 	42 	22
f 32 	17 	38
f 31 	24 	46
f 11 	31 	46
f 11 	46 	15
f 46 	44 	15
f 6 	48 	9
f 15 	44 	45
f 40 	6 	44
f 40 	44 	46
f 9 	48 	47
f 13 	47 	48
f 48 	16 	13
f 17 	13 	16
f 2 	20 	22
f 21 	22 	20
f 4 	30 	26
f 41 	43 	34
f 41 	34 	30
f 17 	33 	13
f 42 	11 	41
f 43 	41 	11
f 31 	11 	42
f 31 	42 	10
f 6 	27 	48
f 27 	6 	40
f 27 	16 	48
f 47 	14 	25
f 24 	9 	47
f 24 	47 	25
# 96 faces

 #end of obj_0

