# Object Export From Tinkercad Server 2015

mtllib obj.mtl

o obj_0
v -3.0577 		3.2896 		0
v 0.4474 		10.3917 		0
v 3.9525 		3.2896 		0
v -5.224 		-3.3774 		0
v -10.8953 		2.1508 		0
v 0.4474 		-7.4979 		0
v -6.5628 		-11.1834 		0
v 6.1187 		-3.3774 		0
v 7.4576 		-11.1834 		0
v 11.7901 		2.1508 		0
v 3.9525 		3.2896 		3
v 0.4474 		10.3917 		3
v -3.0577 		3.2896 		3
v -10.8953 		2.1508 		3
v -5.224 		-3.3774 		3
v -6.5628 		-11.1834 		3
v 0.4474 		-7.4979 		3
v 7.4576 		-11.1834 		3
v 6.1187 		-3.3774 		3
v 11.7901 		2.1508 		3
# 20 vertices

g group_0_16768282

usemtl color_16768282
s 0

f 1 	2 	3
f 4 	5 	1
f 6 	7 	4
f 8 	9 	6
f 3 	10 	8
f 4 	1 	3
f 8 	6 	4
f 4 	3 	8
f 11 	12 	13
f 13 	14 	15
f 15 	16 	17
f 17 	18 	19
f 19 	20 	11
f 11 	13 	15
f 15 	17 	19
f 19 	11 	15
f 2 	1 	12
f 1 	13 	12
f 1 	5 	13
f 5 	14 	13
f 5 	4 	14
f 4 	15 	14
f 4 	7 	15
f 7 	16 	15
f 7 	6 	16
f 6 	17 	16
f 6 	9 	17
f 9 	18 	17
f 9 	8 	18
f 8 	19 	18
f 8 	10 	19
f 10 	20 	19
f 10 	3 	20
f 3 	11 	20
f 3 	2 	11
f 2 	12 	11
# 36 faces

 #end of obj_0

