# Object Export From Tinkercad Server 2015

mtllib obj.mtl

o obj_0
v -0.1191 		-18.5981 		0
v 0.1799 		-10.2701 		0
v 8.8429 		-5.2691 		0
v 9.0929 		17.0159 		1
v 18.1169 		15.6779 		0
v 20.3604 		15.1159 		0
v 8.8429 		4.7329 		1
v 10.7869 		-19.6721 		0
v 8.8429 		-5.2691 		1
v -8.4831 		4.7329 		1
v 0.1799 		-10.2701 		1
v -9.1311 		17.0159 		1
v -9.1311 		17.0159 		0
v 20.3604 		15.1159 		1
v -18.1551 		15.6779 		0
v -0.0191 		17.4639 		0
v -11.0251 		-19.6721 		0
v -0.0191 		17.4639 		1
v 18.1169 		15.6779 		1
v 5.3599 		-18.8671 		0
v -8.4831 		4.7329 		0
v -8.4831 		-5.2691 		0
v -8.4831 		-5.2691 		1
v -11.7469 		-19.8529 		0
v -20 		15.2158 		0
v -18.1551 		15.6779 		1
v 9.0929 		17.0159 		0
v -20 		15.2158 		1
v -0.1191 		-18.5981 		1
v 12.0962 		-20 		0
v 10.7869 		-19.6721 		1
v -5.5981 		-18.8671 		0
v -11.0251 		-19.6721 		1
v 5.3599 		-18.8671 		1
v -11.7469 		-19.8529 		1
v 12.0962 		-20 		1
v -5.5981 		-18.8671 		1
v 0.1799 		9.7349 		0
v 0.1799 		9.7349 		1
v 8.8429 		4.7329 		0
# 40 vertices

g group_0_16089887

usemtl color_16089887
s 0

f 6 	30 	3
f 9 	14 	7
f 14 	19 	7
f 6 	40 	5
f 11 	34 	9
f 4 	16 	18
f 14 	6 	5
f 14 	5 	19
f 20 	3 	8
f 22 	25 	21
f 25 	15 	21
f 13 	21 	15
f 12 	13 	15
f 12 	15 	26
f 28 	23 	10
f 12 	26 	10
f 28 	10 	26
f 4 	27 	16
f 4 	7 	19
f 13 	12 	16
f 18 	16 	12
f 8 	3 	30
f 1 	32 	2
f 20 	1 	2
f 2 	3 	20
f 24 	22 	17
f 32 	17 	22
f 8 	31 	34
f 8 	34 	20
f 31 	36 	9
f 34 	31 	9
f 11 	2 	22
f 11 	22 	23
f 14 	9 	36
f 20 	34 	29
f 20 	29 	1
f 24 	25 	22
f 22 	2 	32
f 16 	27 	38
f 13 	16 	38
f 21 	38 	10
f 39 	10 	38
f 29 	34 	11
f 40 	7 	39
f 40 	39 	38
f 30 	6 	14
f 23 	22 	21
f 23 	21 	10
f 40 	38 	27
f 27 	5 	40
f 3 	40 	6
f 21 	13 	38
f 7 	40 	3
f 7 	3 	9
f 30 	36 	31
f 30 	31 	8
f 23 	37 	11
f 9 	3 	2
f 9 	2 	11
f 30 	14 	36
f 19 	5 	27
f 19 	27 	4
f 17 	33 	35
f 17 	35 	24
f 7 	4 	39
f 4 	18 	39
f 18 	12 	39
f 10 	39 	12
f 35 	33 	23
f 33 	37 	23
f 29 	11 	37
f 28 	35 	23
f 32 	29 	37
f 32 	37 	33
f 32 	33 	17
f 32 	1 	29
f 28 	25 	35
f 24 	35 	25
f 26 	15 	25
f 26 	25 	28
# 80 faces

 #end of obj_0

