# Object Export From Tinkercad Server 2015

mtllib obj.mtl

o obj_0
v 12.0963 		-20 		0
v 20.3604 		15.116 		0
v 20.3604 		15.116 		1
v -9.132 		17.016 		1
v -9.132 		17.016 		0
v 8.272 		7.825 		0
v 8.272 		7.825 		1
v -11.025 		-19.672 		1
v -11.025 		-19.672 		0
v 8.272 		-8.361 		1
v -0.019 		17.464 		1
v -0.019 		17.464 		0
v -11.7469 		-19.8528 		1
v -11.7469 		-19.8528 		0
v 8.272 		-8.361 		0
v -0.119 		-18.598 		0
v 12.0963 		-20 		1
v -0.119 		-18.598 		1
v -7.913 		7.825 		1
v -7.913 		7.825 		0
v -18.156 		15.678 		1
v -20 		15.216 		1
v -7.913 		-8.361 		0
v -7.913 		-8.361 		1
v -18.156 		15.678 		0
v -20 		15.216 		0
v -5.599 		-18.867 		1
v -5.599 		-18.867 		0
v 9.093 		17.016 		1
v 9.093 		17.016 		0
v 10.787 		-19.672 		1
v 10.787 		-19.672 		0
v 18.117 		15.678 		1
v 18.117 		15.678 		0
v 5.36 		-18.867 		1
v 5.36 		-18.867 		0
# 36 vertices

g group_0_16089887

usemtl color_16089887
s 0

f 9 	8 	13
f 9 	13 	14
f 1 	2 	17
f 5 	4 	12
f 11 	12 	4
f 35 	10 	18
f 6 	7 	20
f 19 	20 	7
f 13 	24 	22
f 7 	6 	15
f 7 	15 	10
f 24 	10 	23
f 15 	23 	10
f 28 	9 	23
f 28 	23 	16
f 15 	16 	23
f 26 	23 	14
f 9 	14 	23
f 9 	27 	8
f 24 	23 	20
f 24 	20 	19
f 20 	23 	25
f 5 	20 	25
f 19 	7 	11
f 16 	18 	27
f 16 	27 	28
f 11 	29 	12
f 13 	8 	24
f 28 	27 	9
f 6 	20 	12
f 30 	12 	29
f 26 	14 	13
f 31 	32 	17
f 1 	17 	32
f 4 	21 	19
f 11 	4 	19
f 19 	21 	24
f 21 	22 	24
f 33 	34 	30
f 33 	30 	29
f 32 	15 	1
f 32 	31 	35
f 32 	35 	36
f 3 	2 	34
f 3 	34 	33
f 21 	25 	26
f 21 	26 	22
f 3 	17 	2
f 24 	8 	27
f 12 	20 	5
f 26 	25 	23
f 36 	15 	32
f 36 	35 	18
f 36 	18 	16
f 4 	5 	25
f 4 	25 	21
f 16 	15 	36
f 30 	6 	12
f 18 	24 	27
f 13 	22 	26
f 29 	7 	33
f 11 	7 	29
f 3 	33 	7
f 3 	7 	10
f 24 	18 	10
f 3 	10 	17
f 35 	31 	10
f 31 	17 	10
f 2 	1 	15
f 15 	6 	2
f 6 	34 	2
f 30 	34 	6
# 72 faces

 #end of obj_0

