# Object Export From Tinkercad Server 2015

mtllib obj.mtl

o obj_0
v 8.1984 		-4.4176 		0
v -0.3016 		-9.3251 		0
v -0.3016 		0.4899 		0
v 8.1984 		5.3973 		0
v -0.3016 		10.3048 		0
v -8.8016 		5.3973 		0
v -8.8016 		-4.4176 		0
v -0.3016 		-9.3251 		3
v 8.1984 		-4.4176 		3
v -0.3016 		0.4899 		3
v 8.1984 		5.3973 		3
v -0.3016 		10.3048 		3
v -8.8016 		5.3973 		3
v -8.8016 		-4.4176 		3
# 14 vertices

g group_0_3888547

usemtl color_3888547
s 0

f 1 	2 	3
f 4 	1 	3
f 5 	4 	3
f 6 	5 	3
f 7 	6 	3
f 2 	7 	3
f 8 	9 	10
f 9 	11 	10
f 11 	12 	10
f 12 	13 	10
f 13 	14 	10
f 14 	8 	10
f 2 	1 	1
f 1 	4 	4
f 4 	5 	5
f 5 	6 	6
f 6 	7 	7
f 7 	2 	2
f 2 	1 	9
f 2 	9 	8
f 1 	4 	11
f 1 	11 	9
f 4 	5 	12
f 4 	12 	11
f 5 	6 	13
f 5 	13 	12
f 6 	7 	14
f 6 	14 	13
f 7 	2 	8
f 7 	8 	14
f 8 	9 	9
f 9 	11 	11
f 11 	12 	12
f 12 	13 	13
f 13 	14 	14
f 14 	8 	8
# 36 faces

 #end of obj_0

