# Object Export From Tinkercad Server 2015

mtllib obj.mtl

o obj_0
v 9.9245 		-3.5171 		-1
v 11.7358 		-20 		-1
v 2.5275 		-10.9141 		-1
v 9.4845 		-4.8121 		-1
v 1.1855 		-11.1811 		-1
v 8.8795 		-6.0401 		-1
v 10.2815 		-0.8091 		0
v -0.1805 		9.6529 		-1
v 10.1915 		-2.1741 		0
v 8.1195 		-7.1781 		-1
v -10.5525 		-2.1741 		0
v -9.4915 		17.0159 		-1
v -0.3795 		17.4639 		-1
v 7.2175 		-8.2061 		-1
v 1.1855 		9.5629 		0
v -20.3604 		15.2158 		-1
v -18.5155 		15.6779 		-1
v 6.1885 		-9.1091 		-1
v 2.5275 		9.2959 		0
v 10.4265 		-19.6721 		0
v -10.6415 		-0.8091 		-1
v 10.4265 		-19.6721 		-1
v -4.1835 		-10.4741 		-1
v 8.7325 		17.0159 		0
v -10.5525 		0.5569 		-1
v 8.7325 		17.0159 		-1
v -10.5525 		0.5569 		0
v -0.4795 		-18.5971 		-1
v 5.0505 		-9.8691 		-1
v -5.9585 		-18.8671 		-1
v -10.6415 		-0.8091 		0
v 4.9995 		-18.8671 		0
v 3.8235 		8.8559 		0
v -5.4105 		-9.8691 		-1
v 4.9995 		-18.8671 		-1
v 5.0505 		8.2509 		0
v -10.2855 		1.8989 		-1
v -10.2855 		1.8989 		0
v -6.5485 		-9.1091 		-1
v 3.8235 		-10.4741 		-1
v 6.1885 		7.4909 		0
v -9.8455 		3.1939 		-1
v 7.2175 		6.5879 		0
v -9.8455 		3.1939 		0
v -7.5775 		-8.2061 		-1
v -11.3855 		-19.6721 		-1
v 8.1195 		5.5599 		-1
v -9.2405 		4.4219 		-1
v -9.2405 		4.4219 		0
v 9.9245 		-3.5171 		0
v 8.8795 		4.4219 		-1
v -8.4795 		-7.1781 		-1
v 11.7358 		-20 		0
v -8.4795 		5.5599 		-1
v -8.4795 		5.5599 		0
v 9.4845 		-4.8121 		0
v -12.1073 		-19.8529 		-1
v 9.4845 		3.1939 		-1
v 8.8795 		-6.0401 		0
v 9.9245 		1.8989 		-1
v 8.1195 		-7.1781 		0
v -1.5455 		-11.1811 		-1
v -0.1805 		-11.2701 		-1
v -7.5775 		6.5879 		-1
v -2.8875 		-10.9141 		-1
v 10.1915 		0.5569 		-1
v -7.5775 		6.5879 		0
v 7.2175 		-8.2061 		0
v 10.2815 		-0.8091 		-1
v 6.1885 		-9.1091 		0
v -6.5485 		7.4909 		-1
v -6.5485 		7.4909 		0
v 2.5275 		-10.9141 		0
v 10.1915 		-2.1741 		-1
v 5.0505 		-9.8691 		0
v -5.4105 		8.2509 		-1
v 1.1855 		-11.1811 		0
v -5.4105 		8.2509 		0
v 20 		15.1159 		0
v 17.7565 		15.6779 		0
v 3.8235 		-10.4741 		0
v 1.1855 		9.5629 		-1
v -4.1835 		8.8559 		-1
v -4.1835 		8.8559 		0
v 2.5275 		9.2959 		-1
v 8.1195 		5.5599 		0
v 3.8235 		8.8559 		-1
v -18.5155 		15.6779 		0
v -2.8875 		9.2959 		-1
v -2.8875 		9.2959 		0
v -20.3604 		15.2158 		0
v 5.0505 		8.2509 		-1
v 8.8795 		4.4219 		0
v -9.2405 		-6.0401 		-1
v -1.5455 		9.5629 		-1
v 6.1885 		7.4909 		-1
v 9.4845 		3.1939 		0
v -1.5455 		9.5629 		0
v 7.2175 		6.5879 		-1
v 9.9245 		1.8989 		0
v -9.8455 		-4.8121 		-1
v -0.1805 		9.6529 		0
v 10.1915 		0.5569 		0
v -10.2855 		-3.5171 		-1
v -0.3795 		17.4639 		0
v -9.4915 		17.0159 		0
v -0.4795 		-18.5971 		0
v -5.9585 		-18.8671 		0
v -10.5525 		-2.1741 		-1
v 20 		15.1159 		-1
v 17.7565 		15.6779 		-1
v -4.1835 		-10.4741 		0
v -11.3855 		-19.6721 		0
v -5.4105 		-9.8691 		0
v -12.1073 		-19.8529 		0
v -6.5485 		-9.1091 		0
v -7.5775 		-8.2061 		0
v -8.4795 		-7.1781 		0
v -1.5455 		-11.1811 		0
v -0.1805 		-11.2701 		0
v -9.2405 		-6.0401 		0
v -9.8455 		-4.8121 		0
v -2.8875 		-10.9141 		0
v -10.2855 		-3.5171 		0
# 124 vertices

g group_0_16089887

usemtl color_16089887
s 0

f 4 	1 	2
f 22 	35 	40
f 95 	89 	13
f 8 	95 	13
f 12 	71 	17
f 25 	16 	37
f 17 	42 	16
f 16 	25 	21
f 16 	21 	109
f 109 	104 	16
f 6 	2 	10
f 25 	27 	31
f 25 	31 	21
f 22 	20 	32
f 22 	32 	35
f 24 	26 	105
f 2 	22 	14
f 63 	5 	28
f 80 	26 	24
f 37 	38 	27
f 37 	27 	25
f 36 	41 	24
f 80 	24 	41
f 42 	44 	38
f 42 	38 	37
f 110 	79 	2
f 40 	29 	22
f 29 	18 	22
f 48 	49 	44
f 48 	44 	42
f 43 	86 	80
f 41 	43 	80
f 20 	22 	53
f 2 	53 	22
f 54 	55 	49
f 54 	49 	48
f 50 	1 	4
f 50 	4 	56
f 31 	91 	11
f 56 	4 	6
f 56 	6 	59
f 57 	52 	46
f 19 	33 	24
f 33 	36 	24
f 24 	105 	19
f 15 	19 	105
f 79 	53 	2
f 59 	6 	10
f 59 	10 	61
f 38 	91 	27
f 31 	27 	91
f 61 	10 	14
f 61 	14 	68
f 58 	110 	60
f 55 	54 	67
f 64 	67 	54
f 68 	14 	18
f 68 	18 	70
f 66 	60 	110
f 44 	91 	38
f 71 	72 	67
f 71 	67 	64
f 69 	110 	74
f 70 	18 	29
f 70 	29 	75
f 9 	79 	7
f 50 	79 	9
f 53 	79 	50
f 80 	93 	79
f 49 	88 	44
f 2 	1 	110
f 28 	30 	62
f 65 	30 	23
f 23 	30 	34
f 76 	78 	72
f 76 	72 	71
f 75 	29 	40
f 75 	40 	81
f 55 	88 	49
f 73 	3 	5
f 73 	5 	77
f 8 	13 	82
f 81 	40 	3
f 81 	3 	73
f 83 	84 	78
f 83 	78 	76
f 43 	47 	86
f 88 	17 	16
f 88 	16 	91
f 89 	90 	84
f 89 	84 	83
f 34 	46 	39
f 51 	93 	86
f 51 	86 	47
f 53 	68 	20
f 106 	17 	88
f 87 	26 	92
f 58 	97 	93
f 58 	93 	51
f 95 	98 	90
f 95 	90 	89
f 60 	100 	97
f 60 	97 	58
f 45 	46 	52
f 98 	95 	8
f 98 	8 	102
f 66 	103 	100
f 66 	100 	60
f 105 	26 	13
f 101 	94 	57
f 94 	52 	57
f 96 	111 	99
f 99 	111 	47
f 58 	51 	110
f 47 	111 	51
f 77 	120 	107
f 103 	66 	69
f 103 	69 	7
f 8 	15 	102
f 57 	16 	104
f 104 	101 	57
f 26 	111 	96
f 96 	92 	26
f 26 	87 	85
f 82 	13 	85
f 26 	85 	13
f 106 	12 	17
f 28 	107 	108
f 28 	108 	30
f 74 	9 	7
f 74 	7 	69
f 98 	105 	90
f 105 	13 	12
f 105 	12 	106
f 9 	74 	50
f 1 	50 	74
f 18 	14 	22
f 14 	10 	2
f 4 	2 	6
f 74 	110 	1
f 69 	66 	110
f 110 	51 	111
f 102 	105 	98
f 90 	106 	84
f 82 	15 	8
f 107 	28 	32
f 35 	32 	28
f 85 	19 	15
f 85 	15 	82
f 91 	44 	88
f 87 	33 	19
f 87 	19 	85
f 35 	28 	5
f 92 	36 	33
f 92 	33 	87
f 37 	16 	42
f 34 	114 	112
f 34 	112 	23
f 105 	106 	90
f 105 	102 	15
f 96 	41 	36
f 96 	36 	92
f 42 	17 	48
f 46 	113 	115
f 46 	115 	57
f 99 	43 	41
f 99 	41 	96
f 39 	116 	114
f 39 	114 	34
f 46 	34 	30
f 65 	62 	30
f 39 	46 	45
f 62 	63 	28
f 5 	3 	35
f 3 	40 	35
f 48 	17 	54
f 43 	99 	47
f 26 	80 	111
f 113 	46 	108
f 30 	108 	46
f 45 	117 	116
f 45 	116 	39
f 79 	110 	111
f 79 	111 	80
f 117 	113 	116
f 54 	17 	64
f 91 	16 	115
f 57 	115 	16
f 67 	88 	55
f 72 	88 	67
f 78 	106 	72
f 84 	106 	78
f 88 	72 	106
f 91 	115 	124
f 52 	118 	117
f 52 	117 	45
f 64 	17 	71
f 76 	71 	12
f 63 	62 	119
f 63 	119 	120
f 83 	76 	12
f 94 	121 	118
f 94 	118 	52
f 89 	83 	12
f 12 	13 	89
f 101 	122 	121
f 101 	121 	94
f 119 	62 	65
f 119 	65 	123
f 59 	53 	56
f 61 	53 	59
f 50 	56 	53
f 104 	124 	122
f 104 	122 	101
f 123 	65 	23
f 123 	23 	112
f 68 	53 	61
f 118 	113 	117
f 70 	20 	68
f 104 	11 	124
f 5 	63 	120
f 5 	120 	77
f 122 	115 	121
f 81 	20 	75
f 75 	20 	70
f 109 	11 	104
f 73 	77 	32
f 11 	91 	124
f 124 	115 	122
f 11 	109 	21
f 11 	21 	31
f 123 	108 	119
f 97 	79 	93
f 86 	93 	80
f 100 	79 	97
f 103 	79 	100
f 7 	79 	103
f 112 	114 	108
f 121 	115 	118
f 108 	114 	113
f 108 	107 	119
f 123 	112 	108
f 120 	119 	107
f 107 	32 	77
f 81 	73 	32
f 32 	20 	81
f 113 	118 	115
f 116 	113 	114
# 248 faces

 #end of obj_0

